<svg xmlns="http://www.w3.org/2000/svg" viewBox="0 0 319.44 383.37"><title>bell</title><g id="Layer_2" data-name="Layer 2"><g id="Layer_1-2" data-name="Layer 1"><path d="M163.51,0c9.39,3.49,13.07,10.42,12.38,20.15-.24,3.35.06,6.74-.08,10.1-.09,2.15.65,3.06,2.83,3.45C224.91,42,260.06,76,269.43,122.07c1.61,7.87,1.95,16.08,2.14,24.14.39,16.08-.3,32.2.48,48.26,1.41,29.12,13.42,53.57,35,73.11,7.81,7.08,13.15,14.9,12.32,25.87a28,28,0,0,1-27,26.06c-.87,0-1.75,0-2.62,0h-260c-14.57,0-25.8-8.23-28.9-21.68-2.53-11,.71-20.49,9.23-27.93a111.14,111.14,0,0,0,23.17-27.69C43.41,224.83,48,206,47.9,185.87c-.07-16.09-.41-32.2.39-48.26,1.65-33.2,16.11-60.18,41.76-81.11a106.26,106.26,0,0,1,50.84-22.8c2.19-.36,2.92-1.31,2.83-3.45-.14-3.49.16-7-.07-10.48C143,10.13,146.83,3.42,156,0Z"/><path d="M101.55,335.48H217.79c1.63,20.1-28.31,46.39-53.63,47.79C127.11,385.31,104,356.34,101.55,335.48Z"/></g></g></svg>