<svg xmlns="http://www.w3.org/2000/svg" viewBox="0 0 748.46 240.58"><defs><style>.cls-1{fill:#060707;}</style></defs><title>bus</title><g id="Layer_2" data-name="Layer 2"><g id="Layer_1-2" data-name="Layer 1"><path class="cls-1" d="M0,188.87v-33a45.27,45.27,0,0,0,2.91-16.29C3,116.34,3,93.05,3,69.75A92.32,92.32,0,0,1,6.19,44.12C11,27.42,20.43,15,38.17,10.63A47.59,47.59,0,0,1,49.54,9.38q43.22,0,86.42-.2a38.25,38.25,0,0,0,11,0c4.49.09,9,0,13.45.3a41.34,41.34,0,0,0,21.7-4.21c8.5-4.12,17.45-5.28,27-5.25,74.6.27,149.2.16,223.8.12a23,23,0,0,1,9.71,1.61c10.84,4.86,22.21,5.88,34,5.65,22.64-.44,45.29-.11,67.93-.13,36.76,0,73.59-1.13,109.82,7,3.33,1.51,6.91,2.13,10.44,2.9l21.54,8.19,8.47,4.56c20.47,11.51,31.7,29,36.3,52s9.34,46.16,13.75,69.3a186,186,0,0,1,3.5,41.11c-.44,13.81-13.21,26.57-26.87,26.57-6,0-12,0-18,0-1.86,0-3.66,0-5.08-1.47-1.91-2-4.35-2-6.92-2-21.15.06-42.31-.06-63.46.11-4.22,0-5.89-.44-5.56-5.51a35.56,35.56,0,0,0-21.12-34.86c-14.65-6.29-28.46-4.33-40.3,6.47-8.94,8.16-13.08,18.58-11.44,30.84.33,2.45-.34,3.26-2.81,3.22-5.32-.07-10.64.09-16,.16l-23,.06-2.9,0H477.86c-1.16-.06-2.32-.19-3.48-.19q-68.43.08-136.86.17-40.44.07-80.89.27H255l-1.75-.39c2.91-18.07-6-34.65-22.06-41.22-16.36-6.67-33.67-1.5-44.34,13.25a30.15,30.15,0,0,0-6.48,22.49c.82,6.05-1.11,5.81-5.46,5.81q-73.07,0-146.14.24c-10.39,0-21-7-24.8-16.55C2.5,196.22,1.3,192.52,0,188.87ZM671.7,50.08a15.48,15.48,0,0,0,0,7q-.13,42.89-.28,85.78a3.27,3.27,0,0,0,2.55,3.59c5,1.82,9.9,3.85,14.83,5.82l42.38,16.92c.23-.68.47-1,.42-1.26-5.61-27.79-11.11-55.6-17-83.34-1.45-6.84-1.49-14.29-6.84-19.93-4.72-5-9.75-9.47-15.92-12.57-5.21-3.92-11.28-6.17-17.11-8.9-3.81-1.78-3.83.07-3.11,2.9C671.64,47.4,671.67,48.74,671.7,50.08Zm-303.8,35a64.18,64.18,0,0,0,13,.05,10.16,10.16,0,0,0,5,0c10.43.09,20.86.25,31.29.23,15.89,0,31.79-.18,47.69-.28.89.15,1-.35.83-1l0-58.92c.22-.75-.14-.92-.79-.78l-29,0h-8l-8,0h-16l-36,0c-.66-.13-1,.07-.78.78q0,23,0,45.93c0,1.67,0,3.34,0,5v8C366.92,84.71,367,85.19,367.9,85.07ZM129,85.09l1,0a13,13,0,0,0,6,0c24.71.08,49.42.2,74.13.23,8.61,0,17.23-.17,25.84-.27.9.14,1-.37.83-1q0-29.46,0-58.92c.2-.72-.09-1-.78-.78l-103,0c-4.2-1-6,.43-4.83,4.83q0,8,0,15.94l0,5c0,4,0,8,0,12V79C128.3,81.06,126.78,83.32,129,85.09Zm533.79-38v-5c1.5-7-4.39-7.91-8.53-9.42-17.07-6.24-35.07-7-53-8.46-2.59-.21-2.54,1.23-2.54,3q0,27.42,0,54.84c0,1.89-.25,4,2.78,3.06a53.42,53.42,0,0,0,12.3.86,29.78,29.78,0,0,0,8.65,1.16l2.3.54,4,.32c6.51,2,13.25,3,19.94,4.13l14,3.61ZM99,85.12a10,10,0,0,0,5,0,30.63,30.63,0,0,1,3.46.27c5.23.94,6.58-1.19,6.47-6.37-.35-16.63-.3-33.27,0-49.89.07-4.34-1.33-5.13-5.32-5.09-20.65.2-41.3.29-61.95,0a23.37,23.37,0,0,0-16.28,6.13,38.89,38.89,0,0,0-10,13.47c-6,12.78-4,26.4-4.34,39.78,0,2,1.25,2,2.64,2Zm226.93,0a166.35,166.35,0,0,0,22,0c2.6.6,4.3.61,4.27-3.09-.18-18.14-.15-36.28,0-54.42,0-2.92-.95-3.54-3.67-3.53q-46.49.13-93,0c-3.23,0-3.8,1-3.77,4,.14,14.48,0,29,.08,43.44,0,4.46-1.48,10.46.79,13,2.64,2.93,8.76.9,13.35.9C285.94,85.33,305.93,85.18,325.91,85.08ZM536.49,24.13c-15.14,0-30.28.09-45.42-.07-3.18,0-4.23.7-4.2,4.07q.25,26.67,0,53.34c0,3,.73,4,3.85,4q45.68-.17,91.34,0c3.06,0,3.89-.76,3.86-3.85-.16-17.78-.2-35.56,0-53.34,0-3.76-1.31-4.21-4.55-4.18C566.44,24.23,551.47,24.14,536.49,24.13Z"/><circle class="cls-1" cx="216.88" cy="207.99" r="32.59"/><circle class="cls-1" cx="585.96" cy="207.99" r="32.59"/></g></g></svg>