<svg xmlns="http://www.w3.org/2000/svg" viewBox="0 0 365.22 360.4"><defs><style>.cls-1{fill:#060608;}</style></defs><title>finish</title><g id="Layer_2" data-name="Layer 2"><g id="Layer_1-2" data-name="Layer 1"><path class="cls-1" d="M365.22,186.93c-3.58,9.49-12.48,11.16-20.58,13.4-33,9.11-64.72,5.54-94.74-11.23-18.76-10.48-38.79-16.38-60.31-16.38-28.2,0-53.46,8.84-75.75,26.18-2.12,1.65-1.58,2.81-.68,4.67q34.29,71.06,68.48,142.15c1.85,3.84,2.75,7.63-.18,11.33-4.12,5.21-11.68,4.22-14.89-2.11-3.79-7.48-7.31-15.1-10.95-22.66Q83.23,181.79,10.88,31.26a8.11,8.11,0,0,0-4-4.12A12.55,12.55,0,0,1,.51,12.44,12.94,12.94,0,0,1,14.23,3c6.05.56,11.63,5.63,11.36,11.62a23.28,23.28,0,0,0,4.08,14.65A138,138,0,0,1,60.41,11.08,139.75,139.75,0,0,1,128.17.59a138.33,138.33,0,0,1,55.12,17.18c18,9.9,37.19,15.12,57.86,14.42C252.51,31.8,263.36,29,274,25.35c3.85-1.32,7.72-2.37,11.79-.85,4.26,1.6,6.88,4.73,8.82,8.76q25.94,54,52,108,9.28,19.27,18.59,38.55ZM254.55,171.36c.09.34.25.62.62.36.06,0-.15-.48-.24-.74q-10.29-21.76-20.57-43.54c-.57-1.22-1.65-1.61-2.66-2.18a127.81,127.81,0,0,0-30.43-12.32,109.85,109.85,0,0,0-21.67-3.63c7.2,15.1,14.26,29.78,21.17,44.52,1,2.06,2.52,2.27,4.29,2.41a120.44,120.44,0,0,1,18.47,3.35C234.37,162.2,244.49,166.7,254.55,171.36Zm-77.42-63.61a7.82,7.82,0,0,0-.3-1.36C169.47,90.92,162.05,75.48,154.76,60c-.9-1.92-2.22-2-3.95-2.1a137.79,137.79,0,0,0-46,5.87c-2.85.88-3.66,1.52-2.16,4.56q10.64,21.63,20.75,43.52c1.23,2.65,2.43,2.84,5,2A131.09,131.09,0,0,1,154,108.36C161.62,107.49,169.2,107.84,177.13,107.75Zm-31.31,53.57c-.29-.62-.48-1-.69-1.48-6.6-13.86-13.26-27.69-19.76-41.59-.88-1.86-1.78-1.63-3.23-1.06a133.47,133.47,0,0,0-37.42,22.09c-1.31,1.1-1.62,1.88-.83,3.5q9.6,19.75,19,39.61c1,2,1.68,1.56,3,.56,3.16-2.3,6.36-4.55,9.65-6.65a138.08,138.08,0,0,1,28.05-13.45C144.52,162.54,145.68,162.53,145.82,161.32ZM57.89,88.58c4-3,7.56-5.94,11.34-8.6A131.11,131.11,0,0,1,97.05,65.2c1.28-.5,2.76-.55,1.65-2.83C92.55,49.72,86.56,37,80.55,24.28c-.62-1.31-1.29-1.62-2.75-1.13A126.38,126.38,0,0,0,39,44.2c-1.17.93-1.69,1.66-.94,3.21C44.68,61,51.21,74.66,57.89,88.58ZM284,139.68a4.79,4.79,0,0,0-.18-1.16c-7.47-15.68-15-31.34-22.38-47.06-.73-1.56-1.78-1.51-3.09-1.63-15.09-1.32-29.6-4.82-43.24-11.58-1-.48-1.88-1.35-3.38-1l22.33,46.85a4.19,4.19,0,0,0,1.84,2.06A114,114,0,0,0,284,139.68Zm2.85,1.57a4.15,4.15,0,0,0,.13,1.17c6.89,14.5,13.82,29,20.65,43.52.78,1.68,1.88,1.75,3.36,1.74a110.9,110.9,0,0,0,32.46-5.27c2.85-.88,2.71-1.91,1.61-4.16-5.84-11.87-11.53-23.81-17.28-35.72-3.25-6.72-3.25-6.72-10.62-4.82C307.25,140.27,297.1,140.92,286.85,141.25ZM267.73,88.77a118.21,118.21,0,0,0,28.81-4.36c2.55-.71,2.64-1.42,1.62-3.51-5.86-12-11.69-24-17.33-36.09-1.1-2.37-2.21-2.61-4.46-1.84-9.88,3.38-19.92,6-30.43,6.36-3,.09-2.8,1.28-1.73,3.47,4.73,9.65,9.62,19.23,13.85,29.1C260.28,87.09,262.69,90.56,267.73,88.77ZM207.64,73a6.33,6.33,0,0,0-.17-1.75c-4.45-9.39-8.95-18.76-13.39-28.17a3.75,3.75,0,0,0-2.34-2c-8.4-3.23-16.16-7.79-24.22-11.73a114.72,114.72,0,0,0-30.83-10c5.85,12.25,11.57,24.16,17.21,36.1.63,1.35,1.53,1.52,2.79,1.64a130.88,130.88,0,0,1,29.06,6.24A158.39,158.39,0,0,1,207.64,73Z"/></g></g></svg>