<svg xmlns="http://www.w3.org/2000/svg" viewBox="0 0 336.91 383.38"><title>person_filled</title><g id="Layer_2" data-name="Layer 2"><g id="Layer_1-2" data-name="Layer 1"><path d="M168.31,383.25h95.05q30.87,0,61.74,0c7.27,0,11.95-4.64,11.81-11.93a160.89,160.89,0,0,0-1-17.16c-3.74-29.56-15-55.92-34.68-78.39-28.81-33-65.09-50.52-109.13-51.16-15.58-.22-31.2-.53-46.76.13-11.26.48-22.71,1.43-33.65,4C47.69,243.86.53,303.89,0,369.73c-.06,8.16,5,13.7,13.77,13.65C65.28,383.11,116.8,383.25,168.31,383.25Z"/><path d="M178.27,0c7.48,1.73,15.24,2.69,22.39,5.33,39.22,14.45,62.58,42.39,68.1,83.94,6.92,52.1-28.89,100.41-80.53,111.07C135.21,211.29,81,175.9,69.76,122.68,58,66.82,92.88,13.56,149,1.79c3.27-.69,6.57-1.2,9.86-1.79Zm-9.86,22.46C125.32,22.56,89.93,58,90,101.08s35.47,78.52,78.52,78.57,78.82-35.67,78.66-78.82S211.45,22.36,168.41,22.46Z"/><path d="M168.31,383.25c-51.51,0-103-.14-154.54.13C5,383.43-.06,377.89,0,369.73c.53-65.84,47.69-125.87,111.74-141,10.94-2.58,22.39-3.53,33.65-4,15.56-.66,31.18-.35,46.76-.13,44,.64,80.32,18.17,109.13,51.16,19.63,22.47,30.94,48.83,34.68,78.39a160.89,160.89,0,0,1,1,17.16c.14,7.29-4.54,11.92-11.81,11.93q-30.87,0-61.74,0ZM314,360.62c-.63-4.38-1-8.57-1.85-12.67C300.31,288.6,249.77,247.1,189.25,247c-13.84,0-27.69-.29-41.53.1-8.56.24-17.31.56-25.6,2.47-48.45,11.18-79.92,41-94.68,88.33-2.25,7.25-3.15,14.93-4.73,22.7Z"/><path d="M168.41,22.46c43-.1,78.56,35.26,78.72,78.37s-35.49,78.87-78.66,78.82S90,144.13,90,101.08,125.32,22.56,168.41,22.46Z"/><path d="M314,360.62H22.71c1.58-7.77,2.48-15.45,4.73-22.7,14.76-47.36,46.23-77.15,94.68-88.33,8.29-1.91,17-2.23,25.6-2.47,13.84-.39,27.69-.12,41.53-.1,60.52.08,111.06,41.58,122.88,100.93C312.94,352.05,313.35,356.24,314,360.62Z"/></g></g></svg>