<svg xmlns="http://www.w3.org/2000/svg" viewBox="0 0 178.67 196.33"><defs><style>.cls-1{fill:#7c919a;}</style></defs><title>seat</title><g id="Layer_2" data-name="Layer 2"><g id="Layer_1-2" data-name="Layer 1"><path class="cls-1" d="M165.12,81.65c-.12,1.57-.34,2.54-2.16,3.29C155.54,88,152.47,94,152,101.83c-.68,12.28-1.86,24.53-2.68,36.8a7.29,7.29,0,0,1-3.21,5.73c-9,7.09-19.41,10-30.66,10.1-8.66.11-17.31,0-26,0-13.1-.3-26.32,1.29-39.26-1.89-7-1.74-13.09-5.52-18.65-10.12A4.68,4.68,0,0,1,30,139c-1.27-12.73-2.72-25.44-3.84-38.18-.57-6.4-2.88-11.54-8.57-14.85-1.3-.76-2.62-1.33-2.68-3.21-.47-13.1-2.24-26.22.09-39.3C19.15,20.36,40.35,1.84,63.78.68a508,508,0,0,1,52.36,0c26.9,1.45,49,24,49.82,51.07A287,287,0,0,1,165.12,81.65Z"/><path class="cls-1" d="M90.43,196.31c-17.31,0-34.63.07-52,0-10.11-.06-15.06-4.19-17.15-13.84-2-9.3,4.34-17.32,13.86-16.81,12.11.65,24.13,2.46,36.24,3.34a292.24,292.24,0,0,0,47.34-.8c8.11-.73,16.19-1.9,24.31-2.52,8.65-.66,15.12,4.21,15.92,11.53,1,9.25-4.66,17.42-13.15,18.78a34.37,34.37,0,0,1-5.46.33Q115.4,196.33,90.43,196.31Z"/><path class="cls-1" d="M158.13,147.22c1.14-14.29,2.32-30.2,3.72-46.09.57-6.52,3.63-8.51,10.66-7.56,4.54.61,6.56,4,6.09,9.69-1.26,15.4-2.51,30.81-3.6,46.23-.55,7.75-2.93,10.37-9.79,10C159.63,159.2,157.69,156.32,158.13,147.22Z"/><path class="cls-1" d="M8.27,93.49c5.69,0,7.94,2,8.58,8,1.44,13.69,2.75,27.4,4.12,41.1q.38,3.7.81,7.41c.65,5.7-1.63,8.81-6.91,9.4-6.16.7-9.27-1.66-9.87-7.55-1.67-16.5-3.43-33-4.91-49.51C-.51,95.74,1.85,93.48,8.27,93.49Z"/></g></g></svg>