<svg xmlns="http://www.w3.org/2000/svg" viewBox="0 0 16.1 16.11"><title>start</title><g id="Layer_2" data-name="Layer 2"><g id="Layer_1-2" data-name="Layer 1"><path d="M4.57,5.89,3.43,4.75a.93.93,0,0,1,0-1.43L4.55,2.2a1,1,0,0,1,.89-.29l2.25.32a.46.46,0,0,0,.37-.1A10.31,10.31,0,0,1,11.94.21a6.64,6.64,0,0,1,3.37,0,.75.75,0,0,1,.57.57,6.32,6.32,0,0,1,.18,2.37A9.63,9.63,0,0,1,14,8a.82.82,0,0,0-.11.69c.1.7.2,1.41.29,2.11a.81.81,0,0,1-.23.71c-.42.44-.84.87-1.28,1.28a.9.9,0,0,1-1.28,0c-.36-.35-.72-.7-1.07-1.07a.23.23,0,0,0-.35-.05,9.58,9.58,0,0,1-.92.42.55.55,0,0,1-.53,0,.19.19,0,0,0-.18,0L7,12.78a1.32,1.32,0,0,1-1.68-.24L3.55,10.77A1.33,1.33,0,0,1,3.31,9.1l.76-1.36a.21.21,0,0,0,0-.24.52.52,0,0,1,0-.51Zm4.44,5,.09,0c.28-.15.56-.29.83-.46a11.15,11.15,0,0,0,2.8-2.55,11.14,11.14,0,0,0,1.63-2.6c0-.09.07-.16,0-.25q-1.61-1.59-3.19-3.19a.16.16,0,0,0-.22,0c-.25.12-.51.23-.75.36a12.9,12.9,0,0,0-3,2.34A9.65,9.65,0,0,0,5.31,7c0,.08-.08.14,0,.23l3.6,3.6Zm-1.39.3L5,8.49c-.21.39-.45.8-.66,1.21a.24.24,0,0,0,0,.23c.61.62,1.22,1.24,1.85,1.85a.26.26,0,0,0,.24,0C6.83,11.6,7.23,11.37,7.62,11.16Zm4.72-9.87,2.48,2.48a5.63,5.63,0,0,0,0-2.35.2.2,0,0,0-.17-.18A5.63,5.63,0,0,0,12.34,1.29Zm.54,8.13L11.23,10.9l.87.88.92-.93a.22.22,0,0,0,0-.18C13,10.26,12.94,9.84,12.88,9.42ZM6.69,3.22,5.43,3s-.12,0-.15,0L4.33,4l.86.88Z"/><path d="M.9,15.85a.6.6,0,0,1-.57-.33.52.52,0,0,1,.09-.62c.17-.19.36-.37.54-.55.7-.7,1.4-1.39,2.09-2.1a.61.61,0,0,1,.5-.21A.53.53,0,0,1,4,12.4a.55.55,0,0,1-.15.62L1.76,15.15c-.17.17-.34.35-.52.51A1.33,1.33,0,0,1,.9,15.85Z"/><path d="M.59,13.43a.52.52,0,0,1-.53-.32.53.53,0,0,1,.09-.62c.2-.21.4-.41.61-.61l1-1a.56.56,0,0,1,.85-.06.57.57,0,0,1-.05.85L1,13.23A.52.52,0,0,1,.59,13.43Z"/><path d="M2.64,15.52a2.18,2.18,0,0,1,.2-.37c.52-.54,1.06-1.07,1.59-1.6a.58.58,0,0,1,.81,0,.56.56,0,0,1,0,.79q-.79.83-1.62,1.62a.52.52,0,0,1-.61.11A.64.64,0,0,1,2.64,15.52Z"/><path d="M12.38,6.18a2.46,2.46,0,1,1-4.91,0,2.46,2.46,0,0,1,4.91,0Zm-3.77,0A1.32,1.32,0,1,0,9.93,4.86,1.3,1.3,0,0,0,8.61,6.18Z"/></g></g></svg>