<svg xmlns="http://www.w3.org/2000/svg" viewBox="0 0 424.2 424.2"><defs><style>.cls-1{fill:#2f3bab;}.cls-2{fill:#28378e;}.cls-3{fill:#141948;}.cls-4{fill:#fff;}.cls-5{fill:#f44336;}.cls-6{fill:#393e59;}.cls-7{fill:#888ea5;}</style></defs><title>ticketator_logo</title><g id="Layer_2" data-name="Layer 2"><g id="Layer_1-2" data-name="Layer 1"><rect class="cls-1" width="424.2" height="424.2" rx="41.14"/><path class="cls-2" d="M362.76,129.8V377.67a23.11,23.11,0,0,1-23.05,23.05h-90a4.38,4.38,0,0,1-4.23-3.23,30.37,30.37,0,0,0-58.61,0,4.37,4.37,0,0,1-4.22,3.23h-90a23.12,23.12,0,0,1-23.05-23.05V129.8Z"/><rect class="cls-3" x="42.86" y="113.71" width="338.47" height="23.32" rx="11.66"/><path class="cls-4" d="M358.66,125.36V373.23a23.12,23.12,0,0,1-23.05,23h-90a4.39,4.39,0,0,1-4.23-3.23,30.37,30.37,0,0,0-58.61,0,4.38,4.38,0,0,1-4.22,3.23h-90a23.13,23.13,0,0,1-23-23V125.36Z"/><rect class="cls-5" x="336.44" y="38.45" width="44.45" height="23.95" rx="11.97"/><path class="cls-3" d="M124.57,251.89c0-9.82,0-19.64,0-29.45,0-7.3,3.68-11.3,11-11.31q71.94-.12,143.86,0c7,0,10.55,3.49,12.87,10.3,6.9,20.2,8,41,7.11,62.09-.22,5.7-3.72,9.16-9.47,9.43-.67,0-1.34-.08-2,0-5.07.71-8.07-.28-9.43-6.37-1.87-8.42-9.48-12.78-18.68-12.52-8.62.25-15.71,5.67-17.6,14.19-.83,3.73-2.15,4.87-6.11,4.79-15.81-.32-31.63-.21-47.44-.11-2.76,0-3.9-.51-4.4-3.63-1.45-9.17-8.92-15.14-18.23-15.25-10.07-.12-17.73,5.5-19.39,15.11-.59,3.43-1.87,4-4.69,3.74-1.82-.14-3.66,0-5.49,0-8.1,0-11.45-3.31-11.51-11.54C124.87,271.51,124.69,251.89,124.57,251.89Zm67.1.12c5.16,0,10.31-.09,15.46,0,2.32.06,3.26-.69,3.23-3.1-.13-9.47-.19-18.95-.13-28.42,0-2.61-.95-3.47-3.51-3.45-10.13.09-20.27.06-30.4,0-2.26,0-3.27.64-3.26,3.11.06,9.46.06,18.93-.17,28.4-.08,3.08,1.25,3.55,3.83,3.48C181.7,251.91,186.69,252,191.67,252Zm43,0v0c5,0,10-.11,15,0,2.67.09,3.86-.55,3.79-3.56-.23-9.31-.23-18.63-.16-27.94,0-2.58-.87-3.53-3.47-3.51q-15.21.15-30.44,0c-2.45,0-3.12,1-3.11,3.28,0,9.48,0,19-.15,28.44-.05,2.81,1.19,3.32,3.6,3.26C224.64,251.92,229.63,252,234.62,252Zm-67.48-17.1c-.11,0,0-9.62,0-14.44,0-1.76-.4-3.42-2.83-3.36-9.12.22-18.26-.61-27.35.44a6.1,6.1,0,0,0-5.8,6.34c-.2,7.14-.27,14.28-.12,21.41.08,4.08,2.59,6.56,6.63,6.65,8.79.2,17.59,0,26.39.1,2.35,0,3.21-.8,3.13-3.2C167,244.2,167.14,239.55,167.14,234.9Zm92.12-.92c0,4.82,0,9.64,0,14.45,0,2.1.26,3.44,2.93,3.39,7.64-.14,15.29.16,22.92-.11,5.28-.19,7.81-4.08,6.51-9.25-1.49-6-3.09-11.89-4.55-17.86-1.08-4.41-3.73-7-8.3-7.22-5.47-.23-10.95-.13-16.42-.31-2.62-.08-3,1.33-2.95,3.45C259.45,225,259.3,234,259.26,234Z"/><path class="cls-3" d="M165.64,309c-9.53-.06-16.37-7-16.23-16.38.13-9.13,7-15.53,16.6-15.43,9.15.11,15.68,6.69,15.69,15.82A15.57,15.57,0,0,1,165.64,309Z"/><path class="cls-3" d="M260.63,309.08a15.72,15.72,0,0,1-16.07-16c.05-9.34,7-16,16.65-15.91a15.69,15.69,0,0,1,15.85,15.71C277.1,302.16,270.06,309.1,260.63,309.08Z"/><rect class="cls-3" x="79.9" y="154.85" width="9.39" height="2.96" rx="1.48"/><rect class="cls-3" x="95.84" y="154.85" width="9.39" height="2.96" rx="1.48"/><rect class="cls-3" x="111.78" y="154.85" width="9.39" height="2.96" rx="1.48"/><rect class="cls-3" x="127.72" y="154.85" width="9.39" height="2.96" rx="1.48"/><rect class="cls-3" x="143.65" y="154.85" width="9.39" height="2.96" rx="1.48"/><rect class="cls-3" x="159.59" y="154.85" width="9.39" height="2.96" rx="1.48"/><rect class="cls-3" x="175.53" y="154.85" width="9.39" height="2.96" rx="1.48"/><rect class="cls-3" x="191.47" y="154.85" width="9.39" height="2.96" rx="1.48"/><rect class="cls-3" x="207.4" y="154.85" width="9.39" height="2.96" rx="1.48"/><rect class="cls-3" x="223.34" y="154.85" width="9.39" height="2.96" rx="1.48"/><rect class="cls-3" x="239.28" y="154.85" width="9.39" height="2.96" rx="1.48"/><rect class="cls-3" x="255.22" y="154.85" width="9.39" height="2.96" rx="1.48"/><rect class="cls-3" x="271.15" y="154.85" width="9.39" height="2.96" rx="1.48"/><rect class="cls-3" x="287.09" y="154.85" width="9.39" height="2.96" rx="1.48"/><rect class="cls-3" x="303.03" y="154.85" width="9.39" height="2.96" rx="1.48"/><rect class="cls-3" x="318.97" y="154.85" width="9.39" height="2.96" rx="1.48"/><rect class="cls-3" x="334.9" y="154.85" width="9.39" height="2.96" rx="1.48"/><rect class="cls-6" x="65.53" y="125.38" width="293.13" height="5.22"/><rect class="cls-7" x="65.53" y="130.38" width="293.13" height="5.22"/></g></g></svg>