<svg xmlns="http://www.w3.org/2000/svg" viewBox="0 0 392.15 328.33"><defs><style>.cls-1{fill:#0e0d10;}.cls-1,.cls-2{stroke:#1d1d1b;stroke-miterlimit:10;stroke-width:9px;}.cls-2{fill:#121114;}</style></defs><title>ticket</title><g id="Layer_2" data-name="Layer 2"><g id="Layer_1-2" data-name="Layer 1"><path class="cls-1" d="M4.5,132.62c1.39-1.25,1.16-3.1,1.74-4.65,6-16,17.17-25.4,34.29-27.61,6.45-.84,12.25-3.93,18.27-6.17Q176.53,50.32,294.2,6.28c13.92-5.2,28,1.33,32.74,15.36Q339.74,59.29,352.38,97c.83,2.48,2,3.72,4.69,4.33,17.51,3.89,30.44,20.11,30.54,38,.05,10.47,0,21,0,31.42,0,6.33-2.9,9.29-9.37,9.39-6.83.1-13.63-.09-20.07,3-13.36,6.44-20.39,20.21-17.7,35.2,2.43,13.6,14.68,24.26,29,25.17,3.23.21,6.48,0,9.72.24,5.51.33,8.37,3.38,8.38,8.85,0,10.85.08,21.7,0,32.54-.19,19.67-16.64,37-36.27,38.32-3.11.21-6.23.32-9.34.32q-97.62,0-195.25,0c-33.28,0-66.57-.05-99.85,0-13.91,0-25.51-4.71-34.2-15.83a38.51,38.51,0,0,1-6.79-13.55c-.3-1.08,0-2.53-1.39-3.2V248.6c3-4.31,7.26-5.29,12.16-4.92a42.42,42.42,0,0,0,6-.15,31.52,31.52,0,0,0,26.24-45.71c-6.32-12.46-16.95-18-30.71-17.63-5.26.13-10.3.08-13.65-4.92Zm245,175.08h12.71q42.09,0,84.17,0c14.79,0,24.81-9.89,25.15-24.69.12-5.36,0-10.72,0-16.08,0-2.23.61-4.88-.37-6.58-.85-1.47-3.72-.27-5.66-.73-1-.22-2-.39-2.93-.55-25.13-4.13-43.1-30.85-38.19-55.78,4.13-21,22.64-38.52,45.1-39.18,2.07-.06,2.08-1,2.07-2.53,0-5.11,0-10.22,0-15.33,0-4,.3-8-.72-11.9-3-11.32-12.25-18.16-24.68-18.16q-95,0-190,0c-7.71,0-7.71,0-7.92,7.81,0,.25,0,.5,0,.75a7.85,7.85,0,0,1-7.49,7.41,7.65,7.65,0,0,1-8.26-6.47,35.61,35.61,0,0,1-.3-7.08c.09-2-.58-2.47-2.51-2.46-28.43.06-56.86-.08-85.29.11-13,.09-22.85,9.73-23.54,22.72-.37,7,.06,14-.25,20.94-.15,3.39.81,4.63,4.21,4.26,1.43-.16,2.95.39,4.42.63,25.68,4.22,43.73,30.63,38.37,56.15C62.88,243.08,45.27,258.5,23,259.75c-2,.12-2.47.73-2.43,2.58.1,5.11,0,10.22,0,15.34,0,4-.31,8,.72,11.9,2.92,11.14,12.23,18.1,24.35,18.12q39.82.06,79.67,0c6.57,0,6.56,0,6.73-6.4a18.64,18.64,0,0,1,.34-3.34,8,8,0,0,1,15.73,1c.07.87,0,1.74,0,2.62,0,6.08,0,6.08,6.27,6.08ZM91.59,99.18v.88h53q94,0,188.07.07c3.29,0,3.63-.78,2.62-3.72C327.57,74.06,320,51.66,312.43,29.27c-3-8.87-6.08-10.3-14.74-7.06Q227.28,48.55,156.88,74.88,124.26,87.08,91.59,99.18Z"/><path class="cls-2" d="M148.18,245.49c0,4.49,0,9,0,13.47s-3.14,8-7.38,8.3a7.76,7.76,0,0,1-8.51-7.52c-.28-9.34-.26-18.7,0-28a7.93,7.93,0,0,1,8.1-7.65,8.11,8.11,0,0,1,7.8,8.35C148.22,236.76,148.18,241.13,148.18,245.49Z"/><path class="cls-2" d="M148.18,178.17c0,4.47,0,8.94,0,13.42a8.09,8.09,0,0,1-7.49,8.22,7.8,7.8,0,0,1-8.34-7.29q-.44-14.33,0-28.67a7.65,7.65,0,0,1,8.32-7.25,8,8,0,0,1,7.51,8.14C148.23,169.22,148.18,173.69,148.18,178.17Z"/></g></g></svg>