<svg xmlns="http://www.w3.org/2000/svg" viewBox="0 0 585.62 342.91"><title>uzbekistan</title><g id="Layer_2" data-name="Layer 2"><g id="comp_Uzbekistan"><path d="M23.72,5.22a2.61,2.61,0,1,0-2.61-2.61A2.61,2.61,0,0,0,23.72,5.22Z"/><path d="M34.27,5.22a2.61,2.61,0,1,0-2.61-2.61A2.61,2.61,0,0,0,34.27,5.22Z"/><path d="M44.82,5.22a2.61,2.61,0,1,0-2.61-2.61A2.61,2.61,0,0,0,44.82,5.22Z"/><path d="M55.38,5.22a2.61,2.61,0,1,0-2.62-2.61A2.61,2.61,0,0,0,55.38,5.22Z"/><path d="M65.93,5.22a2.61,2.61,0,1,0-2.61-2.61A2.61,2.61,0,0,0,65.93,5.22Z"/><path d="M76.48,5.22a2.61,2.61,0,1,0-2.61-2.61A2.61,2.61,0,0,0,76.48,5.22Z"/><path d="M87,5.22a2.61,2.61,0,1,0-2.61-2.61A2.61,2.61,0,0,0,87,5.22Z"/><path d="M97.59,5.22A2.61,2.61,0,1,0,95,2.61,2.61,2.61,0,0,0,97.59,5.22Z"/><path d="M23.72,15.78a2.62,2.62,0,1,0-2.61-2.62A2.61,2.61,0,0,0,23.72,15.78Z"/><path d="M34.27,15.78a2.62,2.62,0,1,0-2.61-2.62A2.61,2.61,0,0,0,34.27,15.78Z"/><path d="M44.82,15.78a2.62,2.62,0,1,0-2.61-2.62A2.61,2.61,0,0,0,44.82,15.78Z"/><path d="M55.38,15.78a2.62,2.62,0,1,0-2.62-2.62A2.61,2.61,0,0,0,55.38,15.78Z"/><path d="M65.93,15.78a2.62,2.62,0,1,0-2.61-2.62A2.61,2.61,0,0,0,65.93,15.78Z"/><path d="M76.48,15.78a2.62,2.62,0,1,0-2.61-2.62A2.61,2.61,0,0,0,76.48,15.78Z"/><path d="M87,15.78a2.62,2.62,0,1,0-2.61-2.62A2.61,2.61,0,0,0,87,15.78Z"/><path d="M97.59,15.78A2.62,2.62,0,1,0,95,13.16,2.61,2.61,0,0,0,97.59,15.78Z"/><path d="M2.61,26.33A2.61,2.61,0,1,0,0,23.72,2.61,2.61,0,0,0,2.61,26.33Z"/><path d="M13.16,26.33a2.61,2.61,0,1,0-2.61-2.61A2.61,2.61,0,0,0,13.16,26.33Z"/><path d="M23.72,26.33a2.61,2.61,0,1,0-2.61-2.61A2.61,2.61,0,0,0,23.72,26.33Z"/><path d="M34.27,26.33a2.61,2.61,0,1,0-2.61-2.61A2.61,2.61,0,0,0,34.27,26.33Z"/><path d="M44.82,26.33a2.61,2.61,0,1,0-2.61-2.61A2.61,2.61,0,0,0,44.82,26.33Z"/><path d="M55.38,26.33a2.61,2.61,0,1,0-2.62-2.61A2.61,2.61,0,0,0,55.38,26.33Z"/><path d="M65.93,26.33a2.61,2.61,0,1,0-2.61-2.61A2.61,2.61,0,0,0,65.93,26.33Z"/><path d="M76.48,26.33a2.61,2.61,0,1,0-2.61-2.61A2.61,2.61,0,0,0,76.48,26.33Z"/><path d="M87,26.33a2.61,2.61,0,1,0-2.61-2.61A2.61,2.61,0,0,0,87,26.33Z"/><path d="M97.59,26.33A2.61,2.61,0,1,0,95,23.72,2.61,2.61,0,0,0,97.59,26.33Z"/><path d="M108.14,26.33a2.61,2.61,0,1,0-2.61-2.61A2.61,2.61,0,0,0,108.14,26.33Z"/><path d="M118.69,26.33a2.61,2.61,0,1,0-2.61-2.61A2.61,2.61,0,0,0,118.69,26.33Z"/><path d="M2.61,36.88A2.61,2.61,0,1,0,0,34.27,2.61,2.61,0,0,0,2.61,36.88Z"/><path d="M13.16,36.88a2.61,2.61,0,1,0-2.61-2.61A2.61,2.61,0,0,0,13.16,36.88Z"/><path d="M23.72,36.88a2.61,2.61,0,1,0-2.61-2.61A2.61,2.61,0,0,0,23.72,36.88Z"/><path d="M34.27,36.88a2.61,2.61,0,1,0-2.61-2.61A2.61,2.61,0,0,0,34.27,36.88Z"/><circle cx="44.82" cy="34.27" r="2.61"/><path d="M55.38,36.88a2.61,2.61,0,1,0-2.62-2.61A2.61,2.61,0,0,0,55.38,36.88Z"/><path d="M65.93,36.88a2.61,2.61,0,1,0-2.61-2.61A2.61,2.61,0,0,0,65.93,36.88Z"/><path d="M76.48,36.88a2.61,2.61,0,1,0-2.61-2.61A2.61,2.61,0,0,0,76.48,36.88Z"/><path d="M87,36.88a2.61,2.61,0,1,0-2.61-2.61A2.61,2.61,0,0,0,87,36.88Z"/><path d="M97.59,36.88A2.61,2.61,0,1,0,95,34.27,2.61,2.61,0,0,0,97.59,36.88Z"/><circle cx="108.14" cy="34.27" r="2.61"/><path d="M118.69,36.88a2.61,2.61,0,1,0-2.61-2.61A2.61,2.61,0,0,0,118.69,36.88Z"/><circle cx="129.24" cy="34.27" r="2.61"/><circle cx="139.8" cy="34.27" r="2.61"/><path d="M2.61,47.43A2.61,2.61,0,1,0,0,44.82,2.61,2.61,0,0,0,2.61,47.43Z"/><path d="M13.16,47.43a2.61,2.61,0,1,0-2.61-2.61A2.61,2.61,0,0,0,13.16,47.43Z"/><path d="M23.72,47.43a2.61,2.61,0,1,0-2.61-2.61A2.61,2.61,0,0,0,23.72,47.43Z"/><path d="M34.27,47.43a2.61,2.61,0,1,0-2.61-2.61A2.61,2.61,0,0,0,34.27,47.43Z"/><path d="M44.82,47.43a2.61,2.61,0,1,0-2.61-2.61A2.61,2.61,0,0,0,44.82,47.43Z"/><path d="M55.38,47.43a2.61,2.61,0,1,0-2.62-2.61A2.61,2.61,0,0,0,55.38,47.43Z"/><path d="M65.93,47.43a2.61,2.61,0,1,0-2.61-2.61A2.61,2.61,0,0,0,65.93,47.43Z"/><path d="M76.48,47.43a2.61,2.61,0,1,0-2.61-2.61A2.61,2.61,0,0,0,76.48,47.43Z"/><path d="M87,47.43a2.61,2.61,0,1,0-2.61-2.61A2.61,2.61,0,0,0,87,47.43Z"/><path d="M97.59,47.43A2.61,2.61,0,1,0,95,44.82,2.61,2.61,0,0,0,97.59,47.43Z"/><path d="M108.14,47.43a2.61,2.61,0,1,0-2.61-2.61A2.61,2.61,0,0,0,108.14,47.43Z"/><path d="M118.69,47.43a2.61,2.61,0,1,0-2.61-2.61A2.61,2.61,0,0,0,118.69,47.43Z"/><path d="M129.24,47.43a2.61,2.61,0,1,0-2.61-2.61A2.61,2.61,0,0,0,129.24,47.43Z"/><path d="M139.8,47.43a2.61,2.61,0,1,0-2.62-2.61A2.61,2.61,0,0,0,139.8,47.43Z"/><path d="M150.35,47.43a2.61,2.61,0,1,0-2.61-2.61A2.61,2.61,0,0,0,150.35,47.43Z"/><path d="M160.9,47.43a2.61,2.61,0,1,0-2.61-2.61A2.61,2.61,0,0,0,160.9,47.43Z"/><path d="M2.61,58A2.62,2.62,0,1,0,0,55.38,2.61,2.61,0,0,0,2.61,58Z"/><path d="M13.16,58a2.62,2.62,0,1,0-2.61-2.61A2.61,2.61,0,0,0,13.16,58Z"/><path d="M23.72,58a2.62,2.62,0,1,0-2.61-2.61A2.61,2.61,0,0,0,23.72,58Z"/><path d="M34.27,58a2.62,2.62,0,1,0-2.61-2.61A2.61,2.61,0,0,0,34.27,58Z"/><circle cx="44.82" cy="55.37" r="2.61"/><path d="M55.38,58a2.62,2.62,0,1,0-2.62-2.61A2.61,2.61,0,0,0,55.38,58Z"/><path d="M65.93,58a2.62,2.62,0,1,0-2.61-2.61A2.61,2.61,0,0,0,65.93,58Z"/><path d="M76.48,58a2.62,2.62,0,1,0-2.61-2.61A2.61,2.61,0,0,0,76.48,58Z"/><path d="M87,58a2.62,2.62,0,1,0-2.61-2.61A2.61,2.61,0,0,0,87,58Z"/><path d="M97.59,58A2.62,2.62,0,1,0,95,55.38,2.61,2.61,0,0,0,97.59,58Z"/><circle cx="108.14" cy="55.37" r="2.61"/><path d="M118.69,58a2.62,2.62,0,1,0-2.61-2.61A2.61,2.61,0,0,0,118.69,58Z"/><circle cx="129.24" cy="55.37" r="2.61"/><circle cx="139.8" cy="55.37" r="2.61"/><path d="M150.35,58a2.62,2.62,0,1,0-2.61-2.61A2.61,2.61,0,0,0,150.35,58Z"/><path d="M160.9,58a2.62,2.62,0,1,0-2.61-2.61A2.61,2.61,0,0,0,160.9,58Z"/><path d="M171.45,58a2.62,2.62,0,1,0-2.61-2.61A2.61,2.61,0,0,0,171.45,58Z"/><circle cx="182.01" cy="55.37" r="2.61"/><path d="M2.61,68.54A2.61,2.61,0,1,0,0,65.93,2.61,2.61,0,0,0,2.61,68.54Z"/><path d="M13.16,68.54a2.61,2.61,0,1,0-2.61-2.61A2.61,2.61,0,0,0,13.16,68.54Z"/><path d="M23.72,68.54a2.61,2.61,0,1,0-2.61-2.61A2.61,2.61,0,0,0,23.72,68.54Z"/><path d="M34.27,68.54a2.61,2.61,0,1,0-2.61-2.61A2.61,2.61,0,0,0,34.27,68.54Z"/><path d="M44.82,68.54a2.61,2.61,0,1,0-2.61-2.61A2.61,2.61,0,0,0,44.82,68.54Z"/><path d="M55.38,68.54a2.61,2.61,0,1,0-2.62-2.61A2.61,2.61,0,0,0,55.38,68.54Z"/><path d="M65.93,68.54a2.61,2.61,0,1,0-2.61-2.61A2.61,2.61,0,0,0,65.93,68.54Z"/><path d="M76.48,68.54a2.61,2.61,0,1,0-2.61-2.61A2.61,2.61,0,0,0,76.48,68.54Z"/><path d="M87,68.54a2.61,2.61,0,1,0-2.61-2.61A2.61,2.61,0,0,0,87,68.54Z"/><path d="M97.59,68.54A2.61,2.61,0,1,0,95,65.93,2.61,2.61,0,0,0,97.59,68.54Z"/><path d="M108.14,68.54a2.61,2.61,0,1,0-2.61-2.61A2.61,2.61,0,0,0,108.14,68.54Z"/><path d="M118.69,68.54a2.61,2.61,0,1,0-2.61-2.61A2.61,2.61,0,0,0,118.69,68.54Z"/><path d="M129.24,68.54a2.61,2.61,0,1,0-2.61-2.61A2.61,2.61,0,0,0,129.24,68.54Z"/><path d="M139.8,68.54a2.61,2.61,0,1,0-2.62-2.61A2.61,2.61,0,0,0,139.8,68.54Z"/><path d="M150.35,68.54a2.61,2.61,0,1,0-2.61-2.61A2.61,2.61,0,0,0,150.35,68.54Z"/><path d="M160.9,68.54a2.61,2.61,0,1,0-2.61-2.61A2.61,2.61,0,0,0,160.9,68.54Z"/><path d="M171.45,68.54a2.61,2.61,0,1,0-2.61-2.61A2.61,2.61,0,0,0,171.45,68.54Z"/><path d="M182,68.54a2.61,2.61,0,1,0-2.61-2.61A2.61,2.61,0,0,0,182,68.54Z"/><path d="M192.56,68.54A2.61,2.61,0,1,0,190,65.93,2.61,2.61,0,0,0,192.56,68.54Z"/><path d="M203.11,68.54a2.61,2.61,0,1,0-2.61-2.61A2.61,2.61,0,0,0,203.11,68.54Z"/><path d="M213.67,68.54a2.61,2.61,0,1,0-2.62-2.61A2.61,2.61,0,0,0,213.67,68.54Z"/><path d="M224.22,68.54a2.61,2.61,0,1,0-2.61-2.61A2.61,2.61,0,0,0,224.22,68.54Z"/><path d="M234.77,68.54a2.61,2.61,0,1,0-2.61-2.61A2.61,2.61,0,0,0,234.77,68.54Z"/><path d="M245.32,68.54a2.61,2.61,0,1,0-2.61-2.61A2.61,2.61,0,0,0,245.32,68.54Z"/><path d="M255.88,68.54a2.61,2.61,0,1,0-2.62-2.61A2.61,2.61,0,0,0,255.88,68.54Z"/><path d="M266.43,68.54a2.61,2.61,0,1,0-2.61-2.61A2.61,2.61,0,0,0,266.43,68.54Z"/><path d="M277,68.54a2.61,2.61,0,1,0-2.61-2.61A2.61,2.61,0,0,0,277,68.54Z"/><path d="M287.53,68.54a2.61,2.61,0,1,0-2.61-2.61A2.61,2.61,0,0,0,287.53,68.54Z"/><path d="M298.09,68.54a2.61,2.61,0,1,0-2.61-2.61A2.61,2.61,0,0,0,298.09,68.54Z"/><path d="M308.64,68.54A2.61,2.61,0,1,0,306,65.93,2.61,2.61,0,0,0,308.64,68.54Z"/><path d="M319.19,68.54a2.61,2.61,0,1,0-2.61-2.61A2.61,2.61,0,0,0,319.19,68.54Z"/><path d="M2.61,79.09A2.61,2.61,0,1,0,0,76.48,2.61,2.61,0,0,0,2.61,79.09Z"/><path d="M13.16,79.09a2.61,2.61,0,1,0-2.61-2.61A2.61,2.61,0,0,0,13.16,79.09Z"/><path d="M23.72,79.09a2.61,2.61,0,1,0-2.61-2.61A2.61,2.61,0,0,0,23.72,79.09Z"/><path d="M34.27,79.09a2.61,2.61,0,1,0-2.61-2.61A2.61,2.61,0,0,0,34.27,79.09Z"/><path d="M44.82,79.09a2.61,2.61,0,1,0-2.61-2.61A2.61,2.61,0,0,0,44.82,79.09Z"/><path d="M55.38,79.09a2.61,2.61,0,1,0-2.62-2.61A2.61,2.61,0,0,0,55.38,79.09Z"/><path d="M65.93,79.09a2.61,2.61,0,1,0-2.61-2.61A2.61,2.61,0,0,0,65.93,79.09Z"/><path d="M76.48,79.09a2.61,2.61,0,1,0-2.61-2.61A2.61,2.61,0,0,0,76.48,79.09Z"/><path d="M87,79.09a2.61,2.61,0,1,0-2.61-2.61A2.61,2.61,0,0,0,87,79.09Z"/><path d="M97.59,79.09A2.61,2.61,0,1,0,95,76.48,2.61,2.61,0,0,0,97.59,79.09Z"/><path d="M108.14,79.09a2.61,2.61,0,1,0-2.61-2.61A2.61,2.61,0,0,0,108.14,79.09Z"/><path d="M118.69,79.09a2.61,2.61,0,1,0-2.61-2.61A2.61,2.61,0,0,0,118.69,79.09Z"/><path d="M129.24,79.09a2.61,2.61,0,1,0-2.61-2.61A2.61,2.61,0,0,0,129.24,79.09Z"/><path d="M139.8,79.09a2.61,2.61,0,1,0-2.62-2.61A2.61,2.61,0,0,0,139.8,79.09Z"/><path d="M150.35,79.09a2.61,2.61,0,1,0-2.61-2.61A2.61,2.61,0,0,0,150.35,79.09Z"/><path d="M160.9,79.09a2.61,2.61,0,1,0-2.61-2.61A2.61,2.61,0,0,0,160.9,79.09Z"/><path d="M171.45,79.09a2.61,2.61,0,1,0-2.61-2.61A2.61,2.61,0,0,0,171.45,79.09Z"/><path d="M182,79.09a2.61,2.61,0,1,0-2.61-2.61A2.61,2.61,0,0,0,182,79.09Z"/><path d="M192.56,79.09A2.61,2.61,0,1,0,190,76.48,2.61,2.61,0,0,0,192.56,79.09Z"/><path d="M203.11,79.09a2.61,2.61,0,1,0-2.61-2.61A2.61,2.61,0,0,0,203.11,79.09Z"/><path d="M213.67,79.09a2.61,2.61,0,1,0-2.62-2.61A2.61,2.61,0,0,0,213.67,79.09Z"/><path d="M224.22,79.09a2.61,2.61,0,1,0-2.61-2.61A2.61,2.61,0,0,0,224.22,79.09Z"/><path d="M234.77,79.09a2.61,2.61,0,1,0-2.61-2.61A2.61,2.61,0,0,0,234.77,79.09Z"/><path d="M245.32,79.09a2.61,2.61,0,1,0-2.61-2.61A2.61,2.61,0,0,0,245.32,79.09Z"/><path d="M255.88,79.09a2.61,2.61,0,1,0-2.62-2.61A2.61,2.61,0,0,0,255.88,79.09Z"/><path d="M266.43,79.09a2.61,2.61,0,1,0-2.61-2.61A2.61,2.61,0,0,0,266.43,79.09Z"/><path d="M277,79.09a2.61,2.61,0,1,0-2.61-2.61A2.61,2.61,0,0,0,277,79.09Z"/><path d="M287.53,79.09a2.61,2.61,0,1,0-2.61-2.61A2.61,2.61,0,0,0,287.53,79.09Z"/><path d="M298.09,79.09a2.61,2.61,0,1,0-2.61-2.61A2.61,2.61,0,0,0,298.09,79.09Z"/><path d="M308.64,79.09A2.61,2.61,0,1,0,306,76.48,2.61,2.61,0,0,0,308.64,79.09Z"/><path d="M319.19,79.09a2.61,2.61,0,1,0-2.61-2.61A2.61,2.61,0,0,0,319.19,79.09Z"/><path d="M329.75,79.09a2.61,2.61,0,1,0-2.62-2.61A2.61,2.61,0,0,0,329.75,79.09Z"/><path d="M340.3,79.09a2.61,2.61,0,1,0-2.62-2.61A2.61,2.61,0,0,0,340.3,79.09Z"/><path d="M2.61,89.64A2.61,2.61,0,1,0,0,87,2.61,2.61,0,0,0,2.61,89.64Z"/><path d="M13.16,89.64A2.61,2.61,0,1,0,10.55,87,2.61,2.61,0,0,0,13.16,89.64Z"/><path d="M23.72,89.64A2.61,2.61,0,1,0,21.11,87,2.61,2.61,0,0,0,23.72,89.64Z"/><path d="M34.27,89.64A2.61,2.61,0,1,0,31.66,87,2.61,2.61,0,0,0,34.27,89.64Z"/><path d="M44.82,89.64A2.61,2.61,0,1,0,42.21,87,2.61,2.61,0,0,0,44.82,89.64Z"/><path d="M55.38,89.64A2.61,2.61,0,1,0,52.76,87,2.61,2.61,0,0,0,55.38,89.64Z"/><path d="M65.93,89.64A2.61,2.61,0,1,0,63.32,87,2.61,2.61,0,0,0,65.93,89.64Z"/><path d="M76.48,89.64A2.61,2.61,0,1,0,73.87,87,2.61,2.61,0,0,0,76.48,89.64Z"/><path d="M87,89.64A2.61,2.61,0,1,0,84.42,87,2.6,2.6,0,0,0,87,89.64Z"/><path d="M97.59,89.64A2.61,2.61,0,1,0,95,87,2.61,2.61,0,0,0,97.59,89.64Z"/><path d="M108.14,89.64A2.61,2.61,0,1,0,105.53,87,2.61,2.61,0,0,0,108.14,89.64Z"/><path d="M118.69,89.64A2.61,2.61,0,1,0,116.08,87,2.61,2.61,0,0,0,118.69,89.64Z"/><path d="M129.24,89.64A2.61,2.61,0,1,0,126.63,87,2.61,2.61,0,0,0,129.24,89.64Z"/><path d="M139.8,89.64A2.61,2.61,0,1,0,137.18,87,2.61,2.61,0,0,0,139.8,89.64Z"/><path d="M150.35,89.64A2.61,2.61,0,1,0,147.74,87,2.61,2.61,0,0,0,150.35,89.64Z"/><path d="M160.9,89.64A2.61,2.61,0,1,0,158.29,87,2.61,2.61,0,0,0,160.9,89.64Z"/><path d="M171.45,89.64A2.61,2.61,0,1,0,168.84,87,2.61,2.61,0,0,0,171.45,89.64Z"/><path d="M182,89.64A2.61,2.61,0,1,0,179.4,87,2.61,2.61,0,0,0,182,89.64Z"/><path d="M192.56,89.64A2.61,2.61,0,1,0,190,87,2.61,2.61,0,0,0,192.56,89.64Z"/><path d="M203.11,89.64A2.61,2.61,0,1,0,200.5,87,2.61,2.61,0,0,0,203.11,89.64Z"/><path d="M213.67,89.64A2.61,2.61,0,1,0,211.05,87,2.61,2.61,0,0,0,213.67,89.64Z"/><path d="M224.22,89.64A2.61,2.61,0,1,0,221.61,87,2.61,2.61,0,0,0,224.22,89.64Z"/><path d="M234.77,89.64A2.61,2.61,0,1,0,232.16,87,2.61,2.61,0,0,0,234.77,89.64Z"/><path d="M245.32,89.64A2.61,2.61,0,1,0,242.71,87,2.6,2.6,0,0,0,245.32,89.64Z"/><path d="M255.88,89.64A2.61,2.61,0,1,0,253.26,87,2.61,2.61,0,0,0,255.88,89.64Z"/><path d="M266.43,89.64A2.61,2.61,0,1,0,263.82,87,2.61,2.61,0,0,0,266.43,89.64Z"/><path d="M277,89.64A2.61,2.61,0,1,0,274.37,87,2.61,2.61,0,0,0,277,89.64Z"/><path d="M287.53,89.64A2.61,2.61,0,1,0,284.92,87,2.61,2.61,0,0,0,287.53,89.64Z"/><path d="M298.09,89.64A2.61,2.61,0,1,0,295.48,87,2.61,2.61,0,0,0,298.09,89.64Z"/><path d="M308.64,89.64A2.61,2.61,0,1,0,306,87,2.61,2.61,0,0,0,308.64,89.64Z"/><path d="M319.19,89.64A2.61,2.61,0,1,0,316.58,87,2.61,2.61,0,0,0,319.19,89.64Z"/><path d="M329.75,89.64A2.61,2.61,0,1,0,327.13,87,2.61,2.61,0,0,0,329.75,89.64Z"/><path d="M340.3,89.64A2.61,2.61,0,1,0,337.68,87,2.61,2.61,0,0,0,340.3,89.64Z"/><path d="M2.61,100.2A2.62,2.62,0,1,0,0,97.59,2.61,2.61,0,0,0,2.61,100.2Z"/><path d="M13.16,100.2a2.62,2.62,0,1,0-2.61-2.61A2.61,2.61,0,0,0,13.16,100.2Z"/><path d="M23.72,100.2a2.62,2.62,0,1,0-2.61-2.61A2.61,2.61,0,0,0,23.72,100.2Z"/><path d="M34.27,100.2a2.62,2.62,0,1,0-2.61-2.61A2.61,2.61,0,0,0,34.27,100.2Z"/><path d="M44.82,100.2a2.62,2.62,0,1,0-2.61-2.61A2.61,2.61,0,0,0,44.82,100.2Z"/><path d="M55.38,100.2a2.62,2.62,0,1,0-2.62-2.61A2.61,2.61,0,0,0,55.38,100.2Z"/><path d="M65.93,100.2a2.62,2.62,0,1,0-2.61-2.61A2.61,2.61,0,0,0,65.93,100.2Z"/><path d="M76.48,100.2a2.62,2.62,0,1,0-2.61-2.61A2.61,2.61,0,0,0,76.48,100.2Z"/><path d="M87,100.2a2.62,2.62,0,1,0-2.61-2.61A2.61,2.61,0,0,0,87,100.2Z"/><path d="M97.59,100.2A2.62,2.62,0,1,0,95,97.59,2.61,2.61,0,0,0,97.59,100.2Z"/><path d="M108.14,100.2a2.62,2.62,0,1,0-2.61-2.61A2.61,2.61,0,0,0,108.14,100.2Z"/><path d="M118.69,100.2a2.62,2.62,0,1,0-2.61-2.61A2.61,2.61,0,0,0,118.69,100.2Z"/><path d="M129.24,100.2a2.62,2.62,0,1,0-2.61-2.61A2.61,2.61,0,0,0,129.24,100.2Z"/><path d="M139.8,100.2a2.62,2.62,0,1,0-2.62-2.61A2.61,2.61,0,0,0,139.8,100.2Z"/><path d="M150.35,100.2a2.62,2.62,0,1,0-2.61-2.61A2.61,2.61,0,0,0,150.35,100.2Z"/><path d="M160.9,100.2a2.62,2.62,0,1,0-2.61-2.61A2.61,2.61,0,0,0,160.9,100.2Z"/><path d="M171.45,100.2a2.62,2.62,0,1,0-2.61-2.61A2.61,2.61,0,0,0,171.45,100.2Z"/><path d="M182,100.2a2.62,2.62,0,1,0-2.61-2.61A2.61,2.61,0,0,0,182,100.2Z"/><path d="M192.56,100.2A2.62,2.62,0,1,0,190,97.59,2.61,2.61,0,0,0,192.56,100.2Z"/><path d="M203.11,100.2a2.62,2.62,0,1,0-2.61-2.61A2.61,2.61,0,0,0,203.11,100.2Z"/><path d="M213.67,100.2a2.62,2.62,0,1,0-2.62-2.61A2.61,2.61,0,0,0,213.67,100.2Z"/><path d="M224.22,100.2a2.62,2.62,0,1,0-2.61-2.61A2.61,2.61,0,0,0,224.22,100.2Z"/><path d="M234.77,100.2a2.62,2.62,0,1,0-2.61-2.61A2.61,2.61,0,0,0,234.77,100.2Z"/><path d="M245.32,100.2a2.62,2.62,0,1,0-2.61-2.61A2.61,2.61,0,0,0,245.32,100.2Z"/><path d="M255.88,100.2a2.62,2.62,0,1,0-2.62-2.61A2.61,2.61,0,0,0,255.88,100.2Z"/><path d="M266.43,100.2a2.62,2.62,0,1,0-2.61-2.61A2.61,2.61,0,0,0,266.43,100.2Z"/><path d="M277,100.2a2.62,2.62,0,1,0-2.61-2.61A2.61,2.61,0,0,0,277,100.2Z"/><path d="M287.53,100.2a2.62,2.62,0,1,0-2.61-2.61A2.61,2.61,0,0,0,287.53,100.2Z"/><path d="M298.09,100.2a2.62,2.62,0,1,0-2.61-2.61A2.61,2.61,0,0,0,298.09,100.2Z"/><path d="M308.64,100.2A2.62,2.62,0,1,0,306,97.59,2.61,2.61,0,0,0,308.64,100.2Z"/><path d="M319.19,100.2a2.62,2.62,0,1,0-2.61-2.61A2.61,2.61,0,0,0,319.19,100.2Z"/><path d="M329.75,100.2a2.62,2.62,0,1,0-2.62-2.61A2.61,2.61,0,0,0,329.75,100.2Z"/><path d="M340.3,100.2a2.62,2.62,0,1,0-2.62-2.61A2.61,2.61,0,0,0,340.3,100.2Z"/><path d="M350.85,100.2a2.62,2.62,0,1,0-2.61-2.61A2.61,2.61,0,0,0,350.85,100.2Z"/><path d="M2.61,110.75A2.61,2.61,0,1,0,0,108.14,2.61,2.61,0,0,0,2.61,110.75Z"/><path d="M13.16,110.75a2.61,2.61,0,1,0-2.61-2.61A2.61,2.61,0,0,0,13.16,110.75Z"/><path d="M23.72,110.75a2.61,2.61,0,1,0-2.61-2.61A2.61,2.61,0,0,0,23.72,110.75Z"/><path d="M34.27,110.75a2.61,2.61,0,1,0-2.61-2.61A2.61,2.61,0,0,0,34.27,110.75Z"/><path d="M44.82,110.75a2.61,2.61,0,1,0-2.61-2.61A2.61,2.61,0,0,0,44.82,110.75Z"/><path d="M55.38,110.75a2.61,2.61,0,1,0-2.62-2.61A2.61,2.61,0,0,0,55.38,110.75Z"/><path d="M65.93,110.75a2.61,2.61,0,1,0-2.61-2.61A2.61,2.61,0,0,0,65.93,110.75Z"/><path d="M76.48,110.75a2.61,2.61,0,1,0-2.61-2.61A2.61,2.61,0,0,0,76.48,110.75Z"/><path d="M87,110.75a2.61,2.61,0,1,0-2.61-2.61A2.61,2.61,0,0,0,87,110.75Z"/><path d="M97.59,110.75A2.61,2.61,0,1,0,95,108.14,2.61,2.61,0,0,0,97.59,110.75Z"/><path d="M108.14,110.75a2.61,2.61,0,1,0-2.61-2.61A2.61,2.61,0,0,0,108.14,110.75Z"/><path d="M118.69,110.75a2.61,2.61,0,1,0-2.61-2.61A2.61,2.61,0,0,0,118.69,110.75Z"/><path d="M129.24,110.75a2.61,2.61,0,1,0-2.61-2.61A2.61,2.61,0,0,0,129.24,110.75Z"/><path d="M139.8,110.75a2.61,2.61,0,1,0-2.62-2.61A2.61,2.61,0,0,0,139.8,110.75Z"/><path d="M150.35,110.75a2.61,2.61,0,1,0-2.61-2.61A2.61,2.61,0,0,0,150.35,110.75Z"/><path d="M160.9,110.75a2.61,2.61,0,1,0-2.61-2.61A2.61,2.61,0,0,0,160.9,110.75Z"/><path d="M171.45,110.75a2.61,2.61,0,1,0-2.61-2.61A2.61,2.61,0,0,0,171.45,110.75Z"/><path d="M182,110.75a2.61,2.61,0,1,0-2.61-2.61A2.61,2.61,0,0,0,182,110.75Z"/><path d="M192.56,110.75a2.61,2.61,0,1,0-2.61-2.61A2.61,2.61,0,0,0,192.56,110.75Z"/><path d="M203.11,110.75a2.61,2.61,0,1,0-2.61-2.61A2.61,2.61,0,0,0,203.11,110.75Z"/><path d="M213.67,110.75a2.61,2.61,0,1,0-2.62-2.61A2.61,2.61,0,0,0,213.67,110.75Z"/><path d="M224.22,110.75a2.61,2.61,0,1,0-2.61-2.61A2.61,2.61,0,0,0,224.22,110.75Z"/><path d="M234.77,110.75a2.61,2.61,0,1,0-2.61-2.61A2.61,2.61,0,0,0,234.77,110.75Z"/><path d="M245.32,110.75a2.61,2.61,0,1,0-2.61-2.61A2.61,2.61,0,0,0,245.32,110.75Z"/><path d="M255.88,110.75a2.61,2.61,0,1,0-2.62-2.61A2.61,2.61,0,0,0,255.88,110.75Z"/><path d="M266.43,110.75a2.61,2.61,0,1,0-2.61-2.61A2.61,2.61,0,0,0,266.43,110.75Z"/><path d="M277,110.75a2.61,2.61,0,1,0-2.61-2.61A2.61,2.61,0,0,0,277,110.75Z"/><path d="M287.53,110.75a2.61,2.61,0,1,0-2.61-2.61A2.61,2.61,0,0,0,287.53,110.75Z"/><path d="M298.09,110.75a2.61,2.61,0,1,0-2.61-2.61A2.61,2.61,0,0,0,298.09,110.75Z"/><path d="M308.64,110.75a2.61,2.61,0,1,0-2.61-2.61A2.61,2.61,0,0,0,308.64,110.75Z"/><path d="M319.19,110.75a2.61,2.61,0,1,0-2.61-2.61A2.61,2.61,0,0,0,319.19,110.75Z"/><path d="M329.75,110.75a2.61,2.61,0,1,0-2.62-2.61A2.61,2.61,0,0,0,329.75,110.75Z"/><path d="M340.3,110.75a2.61,2.61,0,1,0-2.62-2.61A2.61,2.61,0,0,0,340.3,110.75Z"/><path d="M350.85,110.75a2.61,2.61,0,1,0-2.61-2.61A2.61,2.61,0,0,0,350.85,110.75Z"/><path d="M361.4,110.75a2.61,2.61,0,1,0-2.61-2.61A2.61,2.61,0,0,0,361.4,110.75Z"/><path d="M2.61,121.3A2.61,2.61,0,1,0,0,118.69,2.61,2.61,0,0,0,2.61,121.3Z"/><path d="M13.16,121.3a2.61,2.61,0,1,0-2.61-2.61A2.61,2.61,0,0,0,13.16,121.3Z"/><path d="M23.72,121.3a2.61,2.61,0,1,0-2.61-2.61A2.61,2.61,0,0,0,23.72,121.3Z"/><path d="M34.27,121.3a2.61,2.61,0,1,0-2.61-2.61A2.61,2.61,0,0,0,34.27,121.3Z"/><circle cx="44.82" cy="118.69" r="2.61"/><path d="M55.38,121.3a2.61,2.61,0,1,0-2.62-2.61A2.61,2.61,0,0,0,55.38,121.3Z"/><path d="M65.93,121.3a2.61,2.61,0,1,0-2.61-2.61A2.61,2.61,0,0,0,65.93,121.3Z"/><path d="M76.48,121.3a2.61,2.61,0,1,0-2.61-2.61A2.61,2.61,0,0,0,76.48,121.3Z"/><path d="M87,121.3a2.61,2.61,0,1,0-2.61-2.61A2.61,2.61,0,0,0,87,121.3Z"/><path d="M97.59,121.3A2.61,2.61,0,1,0,95,118.69,2.61,2.61,0,0,0,97.59,121.3Z"/><circle cx="108.14" cy="118.69" r="2.61"/><path d="M118.69,121.3a2.61,2.61,0,1,0-2.61-2.61A2.61,2.61,0,0,0,118.69,121.3Z"/><circle cx="129.24" cy="118.69" r="2.61"/><circle cx="139.8" cy="118.69" r="2.61"/><path d="M150.35,121.3a2.61,2.61,0,1,0-2.61-2.61A2.61,2.61,0,0,0,150.35,121.3Z"/><path d="M160.9,121.3a2.61,2.61,0,1,0-2.61-2.61A2.61,2.61,0,0,0,160.9,121.3Z"/><path d="M171.45,121.3a2.61,2.61,0,1,0-2.61-2.61A2.61,2.61,0,0,0,171.45,121.3Z"/><circle cx="182.01" cy="118.69" r="2.61"/><circle cx="192.56" cy="118.69" r="2.61"/><path d="M203.11,121.3a2.61,2.61,0,1,0-2.61-2.61A2.61,2.61,0,0,0,203.11,121.3Z"/><path d="M213.67,121.3a2.61,2.61,0,1,0-2.62-2.61A2.61,2.61,0,0,0,213.67,121.3Z"/><path d="M224.22,121.3a2.61,2.61,0,1,0-2.61-2.61A2.61,2.61,0,0,0,224.22,121.3Z"/><path d="M234.77,121.3a2.61,2.61,0,1,0-2.61-2.61A2.61,2.61,0,0,0,234.77,121.3Z"/><path d="M245.32,121.3a2.61,2.61,0,1,0-2.61-2.61A2.61,2.61,0,0,0,245.32,121.3Z"/><path d="M255.88,121.3a2.61,2.61,0,1,0-2.62-2.61A2.61,2.61,0,0,0,255.88,121.3Z"/><path d="M266.43,121.3a2.61,2.61,0,1,0-2.61-2.61A2.61,2.61,0,0,0,266.43,121.3Z"/><path d="M277,121.3a2.61,2.61,0,1,0-2.61-2.61A2.61,2.61,0,0,0,277,121.3Z"/><path d="M287.53,121.3a2.61,2.61,0,1,0-2.61-2.61A2.61,2.61,0,0,0,287.53,121.3Z"/><path d="M298.09,121.3a2.61,2.61,0,1,0-2.61-2.61A2.61,2.61,0,0,0,298.09,121.3Z"/><path d="M308.64,121.3a2.61,2.61,0,1,0-2.61-2.61A2.61,2.61,0,0,0,308.64,121.3Z"/><path d="M319.19,121.3a2.61,2.61,0,1,0-2.61-2.61A2.61,2.61,0,0,0,319.19,121.3Z"/><path d="M329.75,121.3a2.61,2.61,0,1,0-2.62-2.61A2.61,2.61,0,0,0,329.75,121.3Z"/><path d="M340.3,121.3a2.61,2.61,0,1,0-2.62-2.61A2.61,2.61,0,0,0,340.3,121.3Z"/><path d="M350.85,121.3a2.61,2.61,0,1,0-2.61-2.61A2.61,2.61,0,0,0,350.85,121.3Z"/><path d="M361.4,121.3a2.61,2.61,0,1,0-2.61-2.61A2.61,2.61,0,0,0,361.4,121.3Z"/><path d="M519.69,121.3a2.61,2.61,0,1,0-2.61-2.61A2.61,2.61,0,0,0,519.69,121.3Z"/><path d="M530.25,121.3a2.61,2.61,0,1,0-2.62-2.61A2.61,2.61,0,0,0,530.25,121.3Z"/><path d="M2.61,131.86A2.62,2.62,0,1,0,0,129.24,2.61,2.61,0,0,0,2.61,131.86Z"/><path d="M13.16,131.86a2.62,2.62,0,1,0-2.61-2.62A2.62,2.62,0,0,0,13.16,131.86Z"/><path d="M23.72,131.86a2.62,2.62,0,1,0-2.61-2.62A2.61,2.61,0,0,0,23.72,131.86Z"/><path d="M34.27,131.86a2.62,2.62,0,1,0-2.61-2.62A2.61,2.61,0,0,0,34.27,131.86Z"/><path d="M44.82,131.86a2.62,2.62,0,1,0-2.61-2.62A2.61,2.61,0,0,0,44.82,131.86Z"/><path d="M55.38,131.86a2.62,2.62,0,1,0-2.62-2.62A2.61,2.61,0,0,0,55.38,131.86Z"/><path d="M65.93,131.86a2.62,2.62,0,1,0-2.61-2.62A2.61,2.61,0,0,0,65.93,131.86Z"/><path d="M76.48,131.86a2.62,2.62,0,1,0-2.61-2.62A2.61,2.61,0,0,0,76.48,131.86Z"/><path d="M87,131.86a2.62,2.62,0,1,0-2.61-2.62A2.61,2.61,0,0,0,87,131.86Z"/><path d="M97.59,131.86A2.62,2.62,0,1,0,95,129.24,2.61,2.61,0,0,0,97.59,131.86Z"/><path d="M108.14,131.86a2.62,2.62,0,1,0-2.61-2.62A2.61,2.61,0,0,0,108.14,131.86Z"/><path d="M118.69,131.86a2.62,2.62,0,1,0-2.61-2.62A2.61,2.61,0,0,0,118.69,131.86Z"/><path d="M129.24,131.86a2.62,2.62,0,1,0-2.61-2.62A2.62,2.62,0,0,0,129.24,131.86Z"/><path d="M139.8,131.86a2.62,2.62,0,1,0-2.62-2.62A2.61,2.61,0,0,0,139.8,131.86Z"/><path d="M150.35,131.86a2.62,2.62,0,1,0-2.61-2.62A2.61,2.61,0,0,0,150.35,131.86Z"/><path d="M160.9,131.86a2.62,2.62,0,1,0-2.61-2.62A2.61,2.61,0,0,0,160.9,131.86Z"/><path d="M171.45,131.86a2.62,2.62,0,1,0-2.61-2.62A2.62,2.62,0,0,0,171.45,131.86Z"/><path d="M182,131.86a2.62,2.62,0,1,0-2.61-2.62A2.61,2.61,0,0,0,182,131.86Z"/><path d="M192.56,131.86a2.62,2.62,0,1,0-2.61-2.62A2.61,2.61,0,0,0,192.56,131.86Z"/><path d="M203.11,131.86a2.62,2.62,0,1,0-2.61-2.62A2.61,2.61,0,0,0,203.11,131.86Z"/><path d="M213.67,131.86a2.62,2.62,0,1,0-2.62-2.62A2.61,2.61,0,0,0,213.67,131.86Z"/><path d="M224.22,131.86a2.62,2.62,0,1,0-2.61-2.62A2.61,2.61,0,0,0,224.22,131.86Z"/><path d="M234.77,131.86a2.62,2.62,0,1,0-2.61-2.62A2.61,2.61,0,0,0,234.77,131.86Z"/><path d="M245.32,131.86a2.62,2.62,0,1,0-2.61-2.62A2.61,2.61,0,0,0,245.32,131.86Z"/><path d="M255.88,131.86a2.62,2.62,0,1,0-2.62-2.62A2.61,2.61,0,0,0,255.88,131.86Z"/><path d="M266.43,131.86a2.62,2.62,0,1,0-2.61-2.62A2.61,2.61,0,0,0,266.43,131.86Z"/><path d="M277,131.86a2.62,2.62,0,1,0-2.61-2.62A2.61,2.61,0,0,0,277,131.86Z"/><path d="M287.53,131.86a2.62,2.62,0,1,0-2.61-2.62A2.62,2.62,0,0,0,287.53,131.86Z"/><path d="M298.09,131.86a2.62,2.62,0,1,0-2.61-2.62A2.61,2.61,0,0,0,298.09,131.86Z"/><path d="M308.64,131.86a2.62,2.62,0,1,0-2.61-2.62A2.61,2.61,0,0,0,308.64,131.86Z"/><path d="M319.19,131.86a2.62,2.62,0,1,0-2.61-2.62A2.61,2.61,0,0,0,319.19,131.86Z"/><path d="M329.75,131.86a2.62,2.62,0,1,0-2.62-2.62A2.61,2.61,0,0,0,329.75,131.86Z"/><path d="M340.3,131.86a2.62,2.62,0,1,0-2.62-2.62A2.61,2.61,0,0,0,340.3,131.86Z"/><path d="M350.85,131.86a2.62,2.62,0,1,0-2.61-2.62A2.61,2.61,0,0,0,350.85,131.86Z"/><path d="M361.4,131.86a2.62,2.62,0,1,0-2.61-2.62A2.61,2.61,0,0,0,361.4,131.86Z"/><path d="M509.14,131.86a2.62,2.62,0,1,0-2.61-2.62A2.61,2.61,0,0,0,509.14,131.86Z"/><path d="M519.69,131.86a2.62,2.62,0,1,0-2.61-2.62A2.61,2.61,0,0,0,519.69,131.86Z"/><path d="M530.25,131.86a2.62,2.62,0,1,0-2.62-2.62A2.61,2.61,0,0,0,530.25,131.86Z"/><path d="M2.61,142.41A2.62,2.62,0,1,0,0,139.8,2.61,2.61,0,0,0,2.61,142.41Z"/><path d="M13.16,142.41a2.62,2.62,0,1,0-2.61-2.61A2.61,2.61,0,0,0,13.16,142.41Z"/><path d="M23.72,142.41a2.62,2.62,0,1,0-2.61-2.61A2.61,2.61,0,0,0,23.72,142.41Z"/><path d="M34.27,142.41a2.62,2.62,0,1,0-2.61-2.61A2.61,2.61,0,0,0,34.27,142.41Z"/><path d="M44.82,142.41a2.62,2.62,0,1,0-2.61-2.61A2.61,2.61,0,0,0,44.82,142.41Z"/><path d="M55.38,142.41a2.62,2.62,0,1,0-2.62-2.61A2.61,2.61,0,0,0,55.38,142.41Z"/><path d="M65.93,142.41a2.62,2.62,0,1,0-2.61-2.61A2.61,2.61,0,0,0,65.93,142.41Z"/><path d="M76.48,142.41a2.62,2.62,0,1,0-2.61-2.61A2.61,2.61,0,0,0,76.48,142.41Z"/><path d="M87,142.41a2.62,2.62,0,1,0-2.61-2.61A2.61,2.61,0,0,0,87,142.41Z"/><path d="M118.69,142.41a2.62,2.62,0,1,0-2.61-2.61A2.61,2.61,0,0,0,118.69,142.41Z"/><path d="M129.24,142.41a2.62,2.62,0,1,0-2.61-2.61A2.61,2.61,0,0,0,129.24,142.41Z"/><path d="M139.8,142.41a2.62,2.62,0,1,0-2.62-2.61A2.61,2.61,0,0,0,139.8,142.41Z"/><path d="M150.35,142.41a2.62,2.62,0,1,0-2.61-2.61A2.61,2.61,0,0,0,150.35,142.41Z"/><path d="M160.9,142.41a2.62,2.62,0,1,0-2.61-2.61A2.61,2.61,0,0,0,160.9,142.41Z"/><path d="M171.45,142.41a2.62,2.62,0,1,0-2.61-2.61A2.61,2.61,0,0,0,171.45,142.41Z"/><path d="M182,142.41a2.62,2.62,0,1,0-2.61-2.61A2.61,2.61,0,0,0,182,142.41Z"/><path d="M192.56,142.41A2.62,2.62,0,1,0,190,139.8,2.61,2.61,0,0,0,192.56,142.41Z"/><path d="M203.11,142.41a2.62,2.62,0,1,0-2.61-2.61A2.61,2.61,0,0,0,203.11,142.41Z"/><path d="M213.67,142.41a2.62,2.62,0,1,0-2.62-2.61A2.61,2.61,0,0,0,213.67,142.41Z"/><path d="M224.22,142.41a2.62,2.62,0,1,0-2.61-2.61A2.61,2.61,0,0,0,224.22,142.41Z"/><path d="M234.77,142.41a2.62,2.62,0,1,0-2.61-2.61A2.61,2.61,0,0,0,234.77,142.41Z"/><path d="M245.32,142.41a2.62,2.62,0,1,0-2.61-2.61A2.61,2.61,0,0,0,245.32,142.41Z"/><path d="M255.88,142.41a2.62,2.62,0,1,0-2.62-2.61A2.61,2.61,0,0,0,255.88,142.41Z"/><path d="M266.43,142.41a2.62,2.62,0,1,0-2.61-2.61A2.61,2.61,0,0,0,266.43,142.41Z"/><path d="M277,142.41a2.62,2.62,0,1,0-2.61-2.61A2.61,2.61,0,0,0,277,142.41Z"/><path d="M287.53,142.41a2.62,2.62,0,1,0-2.61-2.61A2.61,2.61,0,0,0,287.53,142.41Z"/><path d="M298.09,142.41a2.62,2.62,0,1,0-2.61-2.61A2.61,2.61,0,0,0,298.09,142.41Z"/><path d="M308.64,142.41A2.62,2.62,0,1,0,306,139.8,2.61,2.61,0,0,0,308.64,142.41Z"/><path d="M319.19,142.41a2.62,2.62,0,1,0-2.61-2.61A2.61,2.61,0,0,0,319.19,142.41Z"/><path d="M329.75,142.41a2.62,2.62,0,1,0-2.62-2.61A2.61,2.61,0,0,0,329.75,142.41Z"/><path d="M340.3,142.41a2.62,2.62,0,1,0-2.62-2.61A2.61,2.61,0,0,0,340.3,142.41Z"/><path d="M350.85,142.41a2.62,2.62,0,1,0-2.61-2.61A2.61,2.61,0,0,0,350.85,142.41Z"/><path d="M361.4,142.41a2.62,2.62,0,1,0-2.61-2.61A2.61,2.61,0,0,0,361.4,142.41Z"/><path d="M372,142.41a2.62,2.62,0,1,0-2.61-2.61A2.61,2.61,0,0,0,372,142.41Z"/><path d="M382.51,142.41a2.62,2.62,0,1,0-2.61-2.61A2.61,2.61,0,0,0,382.51,142.41Z"/><path d="M498.59,142.41A2.62,2.62,0,1,0,496,139.8,2.61,2.61,0,0,0,498.59,142.41Z"/><path d="M509.14,142.41a2.62,2.62,0,1,0-2.61-2.61A2.61,2.61,0,0,0,509.14,142.41Z"/><path d="M519.69,142.41a2.62,2.62,0,1,0-2.61-2.61A2.61,2.61,0,0,0,519.69,142.41Z"/><path d="M530.25,142.41a2.62,2.62,0,1,0-2.62-2.61A2.61,2.61,0,0,0,530.25,142.41Z"/><path d="M13.16,153a2.61,2.61,0,1,0-2.61-2.61A2.61,2.61,0,0,0,13.16,153Z"/><path d="M23.72,153a2.61,2.61,0,1,0-2.61-2.61A2.61,2.61,0,0,0,23.72,153Z"/><path d="M34.27,153a2.61,2.61,0,1,0-2.61-2.61A2.61,2.61,0,0,0,34.27,153Z"/><path d="M44.82,153a2.61,2.61,0,1,0-2.61-2.61A2.61,2.61,0,0,0,44.82,153Z"/><path d="M55.38,153a2.61,2.61,0,1,0-2.62-2.61A2.61,2.61,0,0,0,55.38,153Z"/><path d="M139.8,153a2.61,2.61,0,1,0-2.62-2.61A2.61,2.61,0,0,0,139.8,153Z"/><path d="M150.35,153a2.61,2.61,0,1,0-2.61-2.61A2.61,2.61,0,0,0,150.35,153Z"/><path d="M160.9,153a2.61,2.61,0,1,0-2.61-2.61A2.61,2.61,0,0,0,160.9,153Z"/><path d="M171.45,153a2.61,2.61,0,1,0-2.61-2.61A2.61,2.61,0,0,0,171.45,153Z"/><path d="M182,153a2.61,2.61,0,1,0-2.61-2.61A2.61,2.61,0,0,0,182,153Z"/><path d="M192.56,153a2.61,2.61,0,1,0-2.61-2.61A2.61,2.61,0,0,0,192.56,153Z"/><path d="M203.11,153a2.61,2.61,0,1,0-2.61-2.61A2.61,2.61,0,0,0,203.11,153Z"/><path d="M213.67,153a2.61,2.61,0,1,0-2.62-2.61A2.61,2.61,0,0,0,213.67,153Z"/><path d="M224.22,153a2.61,2.61,0,1,0-2.61-2.61A2.61,2.61,0,0,0,224.22,153Z"/><path d="M234.77,153a2.61,2.61,0,1,0-2.61-2.61A2.61,2.61,0,0,0,234.77,153Z"/><path d="M245.32,153a2.61,2.61,0,1,0-2.61-2.61A2.61,2.61,0,0,0,245.32,153Z"/><path d="M255.88,153a2.61,2.61,0,1,0-2.62-2.61A2.61,2.61,0,0,0,255.88,153Z"/><path d="M266.43,153a2.61,2.61,0,1,0-2.61-2.61A2.61,2.61,0,0,0,266.43,153Z"/><path d="M277,153a2.61,2.61,0,1,0-2.61-2.61A2.61,2.61,0,0,0,277,153Z"/><path d="M287.53,153a2.61,2.61,0,1,0-2.61-2.61A2.61,2.61,0,0,0,287.53,153Z"/><path d="M298.09,153a2.61,2.61,0,1,0-2.61-2.61A2.61,2.61,0,0,0,298.09,153Z"/><path d="M308.64,153a2.61,2.61,0,1,0-2.61-2.61A2.61,2.61,0,0,0,308.64,153Z"/><path d="M319.19,153a2.61,2.61,0,1,0-2.61-2.61A2.61,2.61,0,0,0,319.19,153Z"/><path d="M329.75,153a2.61,2.61,0,1,0-2.62-2.61A2.61,2.61,0,0,0,329.75,153Z"/><path d="M340.3,153a2.61,2.61,0,1,0-2.62-2.61A2.61,2.61,0,0,0,340.3,153Z"/><path d="M350.85,153a2.61,2.61,0,1,0-2.61-2.61A2.61,2.61,0,0,0,350.85,153Z"/><path d="M361.4,153a2.61,2.61,0,1,0-2.61-2.61A2.61,2.61,0,0,0,361.4,153Z"/><path d="M372,153a2.61,2.61,0,1,0-2.61-2.61A2.61,2.61,0,0,0,372,153Z"/><path d="M382.51,153a2.61,2.61,0,1,0-2.61-2.61A2.61,2.61,0,0,0,382.51,153Z"/><path d="M498.59,153a2.61,2.61,0,1,0-2.61-2.61A2.61,2.61,0,0,0,498.59,153Z"/><path d="M509.14,153a2.61,2.61,0,1,0-2.61-2.61A2.61,2.61,0,0,0,509.14,153Z"/><path d="M519.69,153a2.61,2.61,0,1,0-2.61-2.61A2.61,2.61,0,0,0,519.69,153Z"/><path d="M561.9,153a2.61,2.61,0,1,0-2.61-2.61A2.61,2.61,0,0,0,561.9,153Z"/><path d="M572.46,153a2.61,2.61,0,1,0-2.62-2.61A2.61,2.61,0,0,0,572.46,153Z"/><path d="M13.16,163.51a2.61,2.61,0,1,0-2.61-2.61A2.61,2.61,0,0,0,13.16,163.51Z"/><path d="M23.72,163.51a2.61,2.61,0,1,0-2.61-2.61A2.61,2.61,0,0,0,23.72,163.51Z"/><path d="M34.27,163.51a2.61,2.61,0,1,0-2.61-2.61A2.61,2.61,0,0,0,34.27,163.51Z"/><path d="M44.82,163.51a2.61,2.61,0,1,0-2.61-2.61A2.61,2.61,0,0,0,44.82,163.51Z"/><path d="M150.35,163.51a2.61,2.61,0,1,0-2.61-2.61A2.61,2.61,0,0,0,150.35,163.51Z"/><path d="M160.9,163.51a2.61,2.61,0,1,0-2.61-2.61A2.61,2.61,0,0,0,160.9,163.51Z"/><path d="M171.45,163.51a2.61,2.61,0,1,0-2.61-2.61A2.61,2.61,0,0,0,171.45,163.51Z"/><path d="M182,163.51a2.61,2.61,0,1,0-2.61-2.61A2.61,2.61,0,0,0,182,163.51Z"/><path d="M192.56,163.51A2.61,2.61,0,1,0,190,160.9,2.61,2.61,0,0,0,192.56,163.51Z"/><path d="M203.11,163.51a2.61,2.61,0,1,0-2.61-2.61A2.61,2.61,0,0,0,203.11,163.51Z"/><path d="M213.67,163.51a2.61,2.61,0,1,0-2.62-2.61A2.61,2.61,0,0,0,213.67,163.51Z"/><path d="M224.22,163.51a2.61,2.61,0,1,0-2.61-2.61A2.61,2.61,0,0,0,224.22,163.51Z"/><path d="M234.77,163.51a2.61,2.61,0,1,0-2.61-2.61A2.61,2.61,0,0,0,234.77,163.51Z"/><path d="M245.32,163.51a2.61,2.61,0,1,0-2.61-2.61A2.61,2.61,0,0,0,245.32,163.51Z"/><path d="M255.88,163.51a2.61,2.61,0,1,0-2.62-2.61A2.61,2.61,0,0,0,255.88,163.51Z"/><path d="M266.43,163.51a2.61,2.61,0,1,0-2.61-2.61A2.61,2.61,0,0,0,266.43,163.51Z"/><path d="M277,163.51a2.61,2.61,0,1,0-2.61-2.61A2.61,2.61,0,0,0,277,163.51Z"/><path d="M287.53,163.51a2.61,2.61,0,1,0-2.61-2.61A2.61,2.61,0,0,0,287.53,163.51Z"/><path d="M298.09,163.51a2.61,2.61,0,1,0-2.61-2.61A2.61,2.61,0,0,0,298.09,163.51Z"/><path d="M308.64,163.51A2.61,2.61,0,1,0,306,160.9,2.61,2.61,0,0,0,308.64,163.51Z"/><path d="M319.19,163.51a2.61,2.61,0,1,0-2.61-2.61A2.61,2.61,0,0,0,319.19,163.51Z"/><path d="M329.75,163.51a2.61,2.61,0,1,0-2.62-2.61A2.61,2.61,0,0,0,329.75,163.51Z"/><path d="M340.3,163.51a2.61,2.61,0,1,0-2.62-2.61A2.61,2.61,0,0,0,340.3,163.51Z"/><path d="M350.85,163.51a2.61,2.61,0,1,0-2.61-2.61A2.61,2.61,0,0,0,350.85,163.51Z"/><path d="M361.4,163.51a2.61,2.61,0,1,0-2.61-2.61A2.61,2.61,0,0,0,361.4,163.51Z"/><path d="M372,163.51a2.61,2.61,0,1,0-2.61-2.61A2.61,2.61,0,0,0,372,163.51Z"/><path d="M382.51,163.51a2.61,2.61,0,1,0-2.61-2.61A2.61,2.61,0,0,0,382.51,163.51Z"/><path d="M393.06,163.51a2.61,2.61,0,1,0-2.61-2.61A2.61,2.61,0,0,0,393.06,163.51Z"/><path d="M488,163.51a2.61,2.61,0,1,0-2.61-2.61A2.61,2.61,0,0,0,488,163.51Z"/><path d="M498.59,163.51A2.61,2.61,0,1,0,496,160.9,2.61,2.61,0,0,0,498.59,163.51Z"/><path d="M509.14,163.51a2.61,2.61,0,1,0-2.61-2.61A2.61,2.61,0,0,0,509.14,163.51Z"/><path d="M519.69,163.51a2.61,2.61,0,1,0-2.61-2.61A2.61,2.61,0,0,0,519.69,163.51Z"/><path d="M530.25,163.51a2.61,2.61,0,1,0-2.62-2.61A2.61,2.61,0,0,0,530.25,163.51Z"/><path d="M540.8,163.51a2.61,2.61,0,1,0-2.61-2.61A2.61,2.61,0,0,0,540.8,163.51Z"/><path d="M551.35,163.51a2.61,2.61,0,1,0-2.61-2.61A2.61,2.61,0,0,0,551.35,163.51Z"/><path d="M561.9,163.51a2.61,2.61,0,1,0-2.61-2.61A2.61,2.61,0,0,0,561.9,163.51Z"/><path d="M572.46,163.51a2.61,2.61,0,1,0-2.62-2.61A2.61,2.61,0,0,0,572.46,163.51Z"/><path d="M583,163.51a2.61,2.61,0,1,0-2.61-2.61A2.61,2.61,0,0,0,583,163.51Z"/><path d="M13.16,174.07a2.62,2.62,0,1,0-2.61-2.62A2.62,2.62,0,0,0,13.16,174.07Z"/><path d="M23.72,174.07a2.62,2.62,0,1,0-2.61-2.62A2.61,2.61,0,0,0,23.72,174.07Z"/><path d="M34.27,174.07a2.62,2.62,0,1,0-2.61-2.62A2.61,2.61,0,0,0,34.27,174.07Z"/><path d="M44.82,174.07a2.62,2.62,0,1,0-2.61-2.62A2.61,2.61,0,0,0,44.82,174.07Z"/><path d="M55.38,174.07a2.62,2.62,0,1,0-2.62-2.62A2.61,2.61,0,0,0,55.38,174.07Z"/><path d="M171.45,174.07a2.62,2.62,0,1,0-2.61-2.62A2.62,2.62,0,0,0,171.45,174.07Z"/><path d="M182,174.07a2.62,2.62,0,1,0-2.61-2.62A2.61,2.61,0,0,0,182,174.07Z"/><path d="M192.56,174.07a2.62,2.62,0,1,0-2.61-2.62A2.61,2.61,0,0,0,192.56,174.07Z"/><path d="M203.11,174.07a2.62,2.62,0,1,0-2.61-2.62A2.61,2.61,0,0,0,203.11,174.07Z"/><path d="M213.67,174.07a2.62,2.62,0,1,0-2.62-2.62A2.61,2.61,0,0,0,213.67,174.07Z"/><path d="M224.22,174.07a2.62,2.62,0,1,0-2.61-2.62A2.61,2.61,0,0,0,224.22,174.07Z"/><path d="M234.77,174.07a2.62,2.62,0,1,0-2.61-2.62A2.61,2.61,0,0,0,234.77,174.07Z"/><path d="M245.32,174.07a2.62,2.62,0,1,0-2.61-2.62A2.61,2.61,0,0,0,245.32,174.07Z"/><path d="M255.88,174.07a2.62,2.62,0,1,0-2.62-2.62A2.61,2.61,0,0,0,255.88,174.07Z"/><path d="M266.43,174.07a2.62,2.62,0,1,0-2.61-2.62A2.61,2.61,0,0,0,266.43,174.07Z"/><path d="M277,174.07a2.62,2.62,0,1,0-2.61-2.62A2.61,2.61,0,0,0,277,174.07Z"/><path d="M287.53,174.07a2.62,2.62,0,1,0-2.61-2.62A2.62,2.62,0,0,0,287.53,174.07Z"/><path d="M298.09,174.07a2.62,2.62,0,1,0-2.61-2.62A2.61,2.61,0,0,0,298.09,174.07Z"/><path d="M308.64,174.07a2.62,2.62,0,1,0-2.61-2.62A2.61,2.61,0,0,0,308.64,174.07Z"/><path d="M319.19,174.07a2.62,2.62,0,1,0-2.61-2.62A2.61,2.61,0,0,0,319.19,174.07Z"/><path d="M329.75,174.07a2.62,2.62,0,1,0-2.62-2.62A2.61,2.61,0,0,0,329.75,174.07Z"/><path d="M340.3,174.07a2.62,2.62,0,1,0-2.62-2.62A2.61,2.61,0,0,0,340.3,174.07Z"/><path d="M350.85,174.07a2.62,2.62,0,1,0-2.61-2.62A2.61,2.61,0,0,0,350.85,174.07Z"/><path d="M361.4,174.07a2.62,2.62,0,1,0-2.61-2.62A2.61,2.61,0,0,0,361.4,174.07Z"/><path d="M372,174.07a2.62,2.62,0,1,0-2.61-2.62A2.62,2.62,0,0,0,372,174.07Z"/><path d="M382.51,174.07a2.62,2.62,0,1,0-2.61-2.62A2.61,2.61,0,0,0,382.51,174.07Z"/><path d="M393.06,174.07a2.62,2.62,0,1,0-2.61-2.62A2.61,2.61,0,0,0,393.06,174.07Z"/><path d="M424.72,174.07a2.62,2.62,0,1,0-2.61-2.62A2.61,2.61,0,0,0,424.72,174.07Z"/><path d="M435.27,174.07a2.62,2.62,0,1,0-2.61-2.62A2.61,2.61,0,0,0,435.27,174.07Z"/><path d="M445.82,174.07a2.62,2.62,0,1,0-2.61-2.62A2.61,2.61,0,0,0,445.82,174.07Z"/><path d="M477.48,174.07a2.62,2.62,0,1,0-2.61-2.62A2.61,2.61,0,0,0,477.48,174.07Z"/><path d="M488,174.07a2.62,2.62,0,1,0-2.61-2.62A2.62,2.62,0,0,0,488,174.07Z"/><path d="M498.59,174.07a2.62,2.62,0,1,0-2.61-2.62A2.61,2.61,0,0,0,498.59,174.07Z"/><path d="M509.14,174.07a2.62,2.62,0,1,0-2.61-2.62A2.61,2.61,0,0,0,509.14,174.07Z"/><path d="M519.69,174.07a2.62,2.62,0,1,0-2.61-2.62A2.61,2.61,0,0,0,519.69,174.07Z"/><path d="M530.25,174.07a2.62,2.62,0,1,0-2.62-2.62A2.61,2.61,0,0,0,530.25,174.07Z"/><path d="M540.8,174.07a2.62,2.62,0,1,0-2.61-2.62A2.61,2.61,0,0,0,540.8,174.07Z"/><path d="M551.35,174.07a2.62,2.62,0,1,0-2.61-2.62A2.61,2.61,0,0,0,551.35,174.07Z"/><path d="M561.9,174.07a2.62,2.62,0,1,0-2.61-2.62A2.61,2.61,0,0,0,561.9,174.07Z"/><path d="M572.46,174.07a2.62,2.62,0,1,0-2.62-2.62A2.61,2.61,0,0,0,572.46,174.07Z"/><path d="M583,174.07a2.62,2.62,0,1,0-2.61-2.62A2.61,2.61,0,0,0,583,174.07Z"/><path d="M13.16,184.62A2.61,2.61,0,1,0,10.55,182,2.61,2.61,0,0,0,13.16,184.62Z"/><path d="M23.72,184.62A2.61,2.61,0,1,0,21.11,182,2.61,2.61,0,0,0,23.72,184.62Z"/><path d="M34.27,184.62A2.61,2.61,0,1,0,31.66,182,2.61,2.61,0,0,0,34.27,184.62Z"/><path d="M44.82,184.62A2.61,2.61,0,1,0,42.21,182,2.61,2.61,0,0,0,44.82,184.62Z"/><path d="M55.38,184.62A2.61,2.61,0,1,0,52.76,182,2.61,2.61,0,0,0,55.38,184.62Z"/><path d="M192.56,184.62A2.61,2.61,0,1,0,190,182,2.61,2.61,0,0,0,192.56,184.62Z"/><path d="M203.11,184.62A2.61,2.61,0,1,0,200.5,182,2.61,2.61,0,0,0,203.11,184.62Z"/><path d="M213.67,184.62a2.61,2.61,0,1,0-2.62-2.61A2.61,2.61,0,0,0,213.67,184.62Z"/><path d="M224.22,184.62a2.61,2.61,0,1,0-2.61-2.61A2.61,2.61,0,0,0,224.22,184.62Z"/><path d="M234.77,184.62a2.61,2.61,0,1,0-2.61-2.61A2.61,2.61,0,0,0,234.77,184.62Z"/><path d="M245.32,184.62a2.61,2.61,0,1,0-2.61-2.61A2.61,2.61,0,0,0,245.32,184.62Z"/><path d="M255.88,184.62a2.61,2.61,0,1,0-2.62-2.61A2.61,2.61,0,0,0,255.88,184.62Z"/><path d="M266.43,184.62a2.61,2.61,0,1,0-2.61-2.61A2.61,2.61,0,0,0,266.43,184.62Z"/><path d="M277,184.62a2.61,2.61,0,1,0-2.61-2.61A2.61,2.61,0,0,0,277,184.62Z"/><path d="M287.53,184.62a2.61,2.61,0,1,0-2.61-2.61A2.61,2.61,0,0,0,287.53,184.62Z"/><path d="M298.09,184.62a2.61,2.61,0,1,0-2.61-2.61A2.61,2.61,0,0,0,298.09,184.62Z"/><path d="M308.64,184.62A2.61,2.61,0,1,0,306,182,2.61,2.61,0,0,0,308.64,184.62Z"/><path d="M319.19,184.62a2.61,2.61,0,1,0-2.61-2.61A2.61,2.61,0,0,0,319.19,184.62Z"/><path d="M329.75,184.62a2.61,2.61,0,1,0-2.62-2.61A2.61,2.61,0,0,0,329.75,184.62Z"/><path d="M340.3,184.62a2.61,2.61,0,1,0-2.62-2.61A2.61,2.61,0,0,0,340.3,184.62Z"/><path d="M350.85,184.62a2.61,2.61,0,1,0-2.61-2.61A2.61,2.61,0,0,0,350.85,184.62Z"/><path d="M361.4,184.62a2.61,2.61,0,1,0-2.61-2.61A2.61,2.61,0,0,0,361.4,184.62Z"/><path d="M372,184.62a2.61,2.61,0,1,0-2.61-2.61A2.61,2.61,0,0,0,372,184.62Z"/><path d="M382.51,184.62A2.61,2.61,0,1,0,379.9,182,2.61,2.61,0,0,0,382.51,184.62Z"/><path d="M393.06,184.62a2.61,2.61,0,1,0-2.61-2.61A2.61,2.61,0,0,0,393.06,184.62Z"/><path d="M403.61,184.62A2.61,2.61,0,1,0,401,182,2.61,2.61,0,0,0,403.61,184.62Z"/><path d="M414.16,184.62a2.61,2.61,0,1,0-2.61-2.61A2.61,2.61,0,0,0,414.16,184.62Z"/><path d="M424.72,184.62a2.61,2.61,0,1,0-2.61-2.61A2.61,2.61,0,0,0,424.72,184.62Z"/><path d="M435.27,184.62a2.61,2.61,0,1,0-2.61-2.61A2.61,2.61,0,0,0,435.27,184.62Z"/><path d="M445.82,184.62a2.61,2.61,0,1,0-2.61-2.61A2.61,2.61,0,0,0,445.82,184.62Z"/><path d="M456.38,184.62a2.61,2.61,0,1,0-2.62-2.61A2.61,2.61,0,0,0,456.38,184.62Z"/><path d="M466.93,184.62a2.61,2.61,0,1,0-2.61-2.61A2.61,2.61,0,0,0,466.93,184.62Z"/><path d="M477.48,184.62a2.61,2.61,0,1,0-2.61-2.61A2.61,2.61,0,0,0,477.48,184.62Z"/><path d="M488,184.62a2.61,2.61,0,1,0-2.61-2.61A2.61,2.61,0,0,0,488,184.62Z"/><path d="M498.59,184.62A2.61,2.61,0,1,0,496,182,2.61,2.61,0,0,0,498.59,184.62Z"/><path d="M509.14,184.62a2.61,2.61,0,1,0-2.61-2.61A2.61,2.61,0,0,0,509.14,184.62Z"/><path d="M519.69,184.62a2.61,2.61,0,1,0-2.61-2.61A2.61,2.61,0,0,0,519.69,184.62Z"/><path d="M530.25,184.62a2.61,2.61,0,1,0-2.62-2.61A2.61,2.61,0,0,0,530.25,184.62Z"/><path d="M540.8,184.62a2.61,2.61,0,1,0-2.61-2.61A2.61,2.61,0,0,0,540.8,184.62Z"/><path d="M551.35,184.62a2.61,2.61,0,1,0-2.61-2.61A2.61,2.61,0,0,0,551.35,184.62Z"/><path d="M561.9,184.62a2.61,2.61,0,1,0-2.61-2.61A2.61,2.61,0,0,0,561.9,184.62Z"/><path d="M572.46,184.62a2.61,2.61,0,1,0-2.62-2.61A2.61,2.61,0,0,0,572.46,184.62Z"/><path d="M583,184.62A2.61,2.61,0,1,0,580.4,182,2.61,2.61,0,0,0,583,184.62Z"/><path d="M224.22,195.17a2.61,2.61,0,1,0-2.61-2.61A2.61,2.61,0,0,0,224.22,195.17Z"/><path d="M234.77,195.17a2.61,2.61,0,1,0-2.61-2.61A2.61,2.61,0,0,0,234.77,195.17Z"/><path d="M245.32,195.17a2.61,2.61,0,1,0-2.61-2.61A2.61,2.61,0,0,0,245.32,195.17Z"/><path d="M255.88,195.17a2.61,2.61,0,1,0-2.62-2.61A2.61,2.61,0,0,0,255.88,195.17Z"/><path d="M266.43,195.17a2.61,2.61,0,1,0-2.61-2.61A2.61,2.61,0,0,0,266.43,195.17Z"/><path d="M277,195.17a2.61,2.61,0,1,0-2.61-2.61A2.61,2.61,0,0,0,277,195.17Z"/><path d="M287.53,195.17a2.61,2.61,0,1,0-2.61-2.61A2.61,2.61,0,0,0,287.53,195.17Z"/><path d="M298.09,195.17a2.61,2.61,0,1,0-2.61-2.61A2.61,2.61,0,0,0,298.09,195.17Z"/><path d="M308.64,195.17a2.61,2.61,0,1,0-2.61-2.61A2.61,2.61,0,0,0,308.64,195.17Z"/><path d="M319.19,195.17a2.61,2.61,0,1,0-2.61-2.61A2.61,2.61,0,0,0,319.19,195.17Z"/><path d="M329.75,195.17a2.61,2.61,0,1,0-2.62-2.61A2.61,2.61,0,0,0,329.75,195.17Z"/><path d="M340.3,195.17a2.61,2.61,0,1,0-2.62-2.61A2.61,2.61,0,0,0,340.3,195.17Z"/><path d="M350.85,195.17a2.61,2.61,0,1,0-2.61-2.61A2.61,2.61,0,0,0,350.85,195.17Z"/><path d="M361.4,195.17a2.61,2.61,0,1,0-2.61-2.61A2.61,2.61,0,0,0,361.4,195.17Z"/><path d="M372,195.17a2.61,2.61,0,1,0-2.61-2.61A2.61,2.61,0,0,0,372,195.17Z"/><path d="M382.51,195.17a2.61,2.61,0,1,0-2.61-2.61A2.61,2.61,0,0,0,382.51,195.17Z"/><path d="M393.06,195.17a2.61,2.61,0,1,0-2.61-2.61A2.61,2.61,0,0,0,393.06,195.17Z"/><path d="M403.61,195.17a2.61,2.61,0,1,0-2.61-2.61A2.61,2.61,0,0,0,403.61,195.17Z"/><path d="M414.16,195.17a2.61,2.61,0,1,0-2.61-2.61A2.61,2.61,0,0,0,414.16,195.17Z"/><path d="M424.72,195.17a2.61,2.61,0,1,0-2.61-2.61A2.61,2.61,0,0,0,424.72,195.17Z"/><path d="M435.27,195.17a2.61,2.61,0,1,0-2.61-2.61A2.61,2.61,0,0,0,435.27,195.17Z"/><path d="M445.82,195.17a2.61,2.61,0,1,0-2.61-2.61A2.61,2.61,0,0,0,445.82,195.17Z"/><path d="M456.38,195.17a2.61,2.61,0,1,0-2.62-2.61A2.61,2.61,0,0,0,456.38,195.17Z"/><path d="M466.93,195.17a2.61,2.61,0,1,0-2.61-2.61A2.61,2.61,0,0,0,466.93,195.17Z"/><path d="M477.48,195.17a2.61,2.61,0,1,0-2.61-2.61A2.61,2.61,0,0,0,477.48,195.17Z"/><path d="M488,195.17a2.61,2.61,0,1,0-2.61-2.61A2.61,2.61,0,0,0,488,195.17Z"/><path d="M498.59,195.17a2.61,2.61,0,1,0-2.61-2.61A2.61,2.61,0,0,0,498.59,195.17Z"/><path d="M509.14,195.17a2.61,2.61,0,1,0-2.61-2.61A2.61,2.61,0,0,0,509.14,195.17Z"/><path d="M234.77,205.72a2.61,2.61,0,1,0-2.61-2.61A2.61,2.61,0,0,0,234.77,205.72Z"/><path d="M245.32,205.72a2.61,2.61,0,1,0-2.61-2.61A2.6,2.6,0,0,0,245.32,205.72Z"/><path d="M255.88,205.72a2.61,2.61,0,1,0-2.62-2.61A2.61,2.61,0,0,0,255.88,205.72Z"/><path d="M266.43,205.72a2.61,2.61,0,1,0-2.61-2.61A2.61,2.61,0,0,0,266.43,205.72Z"/><path d="M277,205.72a2.61,2.61,0,1,0-2.61-2.61A2.61,2.61,0,0,0,277,205.72Z"/><path d="M287.53,205.72a2.61,2.61,0,1,0-2.61-2.61A2.61,2.61,0,0,0,287.53,205.72Z"/><path d="M298.09,205.72a2.61,2.61,0,1,0-2.61-2.61A2.61,2.61,0,0,0,298.09,205.72Z"/><path d="M308.64,205.72a2.61,2.61,0,1,0-2.61-2.61A2.61,2.61,0,0,0,308.64,205.72Z"/><path d="M319.19,205.72a2.61,2.61,0,1,0-2.61-2.61A2.61,2.61,0,0,0,319.19,205.72Z"/><path d="M329.75,205.72a2.61,2.61,0,1,0-2.62-2.61A2.61,2.61,0,0,0,329.75,205.72Z"/><path d="M340.3,205.72a2.61,2.61,0,1,0-2.62-2.61A2.61,2.61,0,0,0,340.3,205.72Z"/><path d="M350.85,205.72a2.61,2.61,0,1,0-2.61-2.61A2.61,2.61,0,0,0,350.85,205.72Z"/><path d="M361.4,205.72a2.61,2.61,0,1,0-2.61-2.61A2.6,2.6,0,0,0,361.4,205.72Z"/><path d="M372,205.72a2.61,2.61,0,1,0-2.61-2.61A2.61,2.61,0,0,0,372,205.72Z"/><path d="M382.51,205.72a2.61,2.61,0,1,0-2.61-2.61A2.61,2.61,0,0,0,382.51,205.72Z"/><path d="M393.06,205.72a2.61,2.61,0,1,0-2.61-2.61A2.61,2.61,0,0,0,393.06,205.72Z"/><path d="M403.61,205.72a2.61,2.61,0,1,0-2.61-2.61A2.61,2.61,0,0,0,403.61,205.72Z"/><path d="M414.16,205.72a2.61,2.61,0,1,0-2.61-2.61A2.61,2.61,0,0,0,414.16,205.72Z"/><path d="M424.72,205.72a2.61,2.61,0,1,0-2.61-2.61A2.61,2.61,0,0,0,424.72,205.72Z"/><path d="M435.27,205.72a2.61,2.61,0,1,0-2.61-2.61A2.61,2.61,0,0,0,435.27,205.72Z"/><path d="M445.82,205.72a2.61,2.61,0,1,0-2.61-2.61A2.6,2.6,0,0,0,445.82,205.72Z"/><path d="M456.38,205.72a2.61,2.61,0,1,0-2.62-2.61A2.61,2.61,0,0,0,456.38,205.72Z"/><path d="M466.93,205.72a2.61,2.61,0,1,0-2.61-2.61A2.61,2.61,0,0,0,466.93,205.72Z"/><path d="M477.48,205.72a2.61,2.61,0,1,0-2.61-2.61A2.61,2.61,0,0,0,477.48,205.72Z"/><path d="M488,205.72a2.61,2.61,0,1,0-2.61-2.61A2.61,2.61,0,0,0,488,205.72Z"/><path d="M498.59,205.72a2.61,2.61,0,1,0-2.61-2.61A2.61,2.61,0,0,0,498.59,205.72Z"/><path d="M509.14,205.72a2.61,2.61,0,1,0-2.61-2.61A2.61,2.61,0,0,0,509.14,205.72Z"/><path d="M234.77,216.28a2.62,2.62,0,1,0-2.61-2.62A2.61,2.61,0,0,0,234.77,216.28Z"/><path d="M245.32,216.28a2.62,2.62,0,1,0-2.61-2.62A2.61,2.61,0,0,0,245.32,216.28Z"/><path d="M255.88,216.28a2.62,2.62,0,1,0-2.62-2.62A2.61,2.61,0,0,0,255.88,216.28Z"/><path d="M266.43,216.28a2.62,2.62,0,1,0-2.61-2.62A2.61,2.61,0,0,0,266.43,216.28Z"/><path d="M277,216.28a2.62,2.62,0,1,0-2.61-2.62A2.61,2.61,0,0,0,277,216.28Z"/><path d="M287.53,216.28a2.62,2.62,0,1,0-2.61-2.62A2.62,2.62,0,0,0,287.53,216.28Z"/><path d="M298.09,216.28a2.62,2.62,0,1,0-2.61-2.62A2.61,2.61,0,0,0,298.09,216.28Z"/><path d="M308.64,216.28a2.62,2.62,0,1,0-2.61-2.62A2.61,2.61,0,0,0,308.64,216.28Z"/><path d="M319.19,216.28a2.62,2.62,0,1,0-2.61-2.62A2.61,2.61,0,0,0,319.19,216.28Z"/><path d="M329.75,216.28a2.62,2.62,0,1,0-2.62-2.62A2.61,2.61,0,0,0,329.75,216.28Z"/><path d="M340.3,216.28a2.62,2.62,0,1,0-2.62-2.62A2.61,2.61,0,0,0,340.3,216.28Z"/><path d="M350.85,216.28a2.62,2.62,0,1,0-2.61-2.62A2.61,2.61,0,0,0,350.85,216.28Z"/><path d="M361.4,216.28a2.62,2.62,0,1,0-2.61-2.62A2.61,2.61,0,0,0,361.4,216.28Z"/><path d="M372,216.28a2.62,2.62,0,1,0-2.61-2.62A2.62,2.62,0,0,0,372,216.28Z"/><path d="M382.51,216.28a2.62,2.62,0,1,0-2.61-2.62A2.61,2.61,0,0,0,382.51,216.28Z"/><path d="M393.06,216.28a2.62,2.62,0,1,0-2.61-2.62A2.61,2.61,0,0,0,393.06,216.28Z"/><path d="M403.61,216.28a2.62,2.62,0,1,0-2.61-2.62A2.62,2.62,0,0,0,403.61,216.28Z"/><path d="M414.16,216.28a2.62,2.62,0,1,0-2.61-2.62A2.62,2.62,0,0,0,414.16,216.28Z"/><path d="M424.72,216.28a2.62,2.62,0,1,0-2.61-2.62A2.61,2.61,0,0,0,424.72,216.28Z"/><path d="M435.27,216.28a2.62,2.62,0,1,0-2.61-2.62A2.61,2.61,0,0,0,435.27,216.28Z"/><path d="M445.82,216.28a2.62,2.62,0,1,0-2.61-2.62A2.61,2.61,0,0,0,445.82,216.28Z"/><path d="M456.38,216.28a2.62,2.62,0,1,0-2.62-2.62A2.61,2.61,0,0,0,456.38,216.28Z"/><path d="M466.93,216.28a2.62,2.62,0,1,0-2.61-2.62A2.61,2.61,0,0,0,466.93,216.28Z"/><path d="M477.48,216.28a2.62,2.62,0,1,0-2.61-2.62A2.61,2.61,0,0,0,477.48,216.28Z"/><path d="M488,216.28a2.62,2.62,0,1,0-2.61-2.62A2.62,2.62,0,0,0,488,216.28Z"/><path d="M498.59,216.28a2.62,2.62,0,1,0-2.61-2.62A2.61,2.61,0,0,0,498.59,216.28Z"/><path d="M509.14,216.28a2.62,2.62,0,1,0-2.61-2.62A2.61,2.61,0,0,0,509.14,216.28Z"/><path d="M245.32,226.83a2.61,2.61,0,1,0-2.61-2.61A2.61,2.61,0,0,0,245.32,226.83Z"/><path d="M255.88,226.83a2.61,2.61,0,1,0-2.62-2.61A2.61,2.61,0,0,0,255.88,226.83Z"/><path d="M266.43,226.83a2.61,2.61,0,1,0-2.61-2.61A2.61,2.61,0,0,0,266.43,226.83Z"/><path d="M277,226.83a2.61,2.61,0,1,0-2.61-2.61A2.61,2.61,0,0,0,277,226.83Z"/><path d="M287.53,226.83a2.61,2.61,0,1,0-2.61-2.61A2.61,2.61,0,0,0,287.53,226.83Z"/><path d="M298.09,226.83a2.61,2.61,0,1,0-2.61-2.61A2.61,2.61,0,0,0,298.09,226.83Z"/><path d="M308.64,226.83a2.61,2.61,0,1,0-2.61-2.61A2.61,2.61,0,0,0,308.64,226.83Z"/><path d="M319.19,226.83a2.61,2.61,0,1,0-2.61-2.61A2.61,2.61,0,0,0,319.19,226.83Z"/><path d="M329.75,226.83a2.61,2.61,0,1,0-2.62-2.61A2.61,2.61,0,0,0,329.75,226.83Z"/><path d="M340.3,226.83a2.61,2.61,0,1,0-2.62-2.61A2.61,2.61,0,0,0,340.3,226.83Z"/><path d="M350.85,226.83a2.61,2.61,0,1,0-2.61-2.61A2.61,2.61,0,0,0,350.85,226.83Z"/><path d="M361.4,226.83a2.61,2.61,0,1,0-2.61-2.61A2.61,2.61,0,0,0,361.4,226.83Z"/><path d="M372,226.83a2.61,2.61,0,1,0-2.61-2.61A2.61,2.61,0,0,0,372,226.83Z"/><path d="M382.51,226.83a2.61,2.61,0,1,0-2.61-2.61A2.61,2.61,0,0,0,382.51,226.83Z"/><path d="M393.06,226.83a2.61,2.61,0,1,0-2.61-2.61A2.61,2.61,0,0,0,393.06,226.83Z"/><path d="M403.61,226.83a2.61,2.61,0,1,0-2.61-2.61A2.61,2.61,0,0,0,403.61,226.83Z"/><path d="M414.16,226.83a2.61,2.61,0,1,0-2.61-2.61A2.61,2.61,0,0,0,414.16,226.83Z"/><path d="M424.72,226.83a2.61,2.61,0,1,0-2.61-2.61A2.61,2.61,0,0,0,424.72,226.83Z"/><path d="M435.27,226.83a2.61,2.61,0,1,0-2.61-2.61A2.61,2.61,0,0,0,435.27,226.83Z"/><path d="M445.82,226.83a2.61,2.61,0,1,0-2.61-2.61A2.61,2.61,0,0,0,445.82,226.83Z"/><path d="M456.38,226.83a2.61,2.61,0,1,0-2.62-2.61A2.61,2.61,0,0,0,456.38,226.83Z"/><path d="M466.93,226.83a2.61,2.61,0,1,0-2.61-2.61A2.61,2.61,0,0,0,466.93,226.83Z"/><path d="M477.48,226.83a2.61,2.61,0,1,0-2.61-2.61A2.61,2.61,0,0,0,477.48,226.83Z"/><path d="M488,226.83a2.61,2.61,0,1,0-2.61-2.61A2.61,2.61,0,0,0,488,226.83Z"/><path d="M255.88,237.38a2.61,2.61,0,1,0-2.62-2.61A2.61,2.61,0,0,0,255.88,237.38Z"/><path d="M266.43,237.38a2.61,2.61,0,1,0-2.61-2.61A2.61,2.61,0,0,0,266.43,237.38Z"/><path d="M277,237.38a2.61,2.61,0,1,0-2.61-2.61A2.61,2.61,0,0,0,277,237.38Z"/><path d="M287.53,237.38a2.61,2.61,0,1,0-2.61-2.61A2.61,2.61,0,0,0,287.53,237.38Z"/><path d="M298.09,237.38a2.61,2.61,0,1,0-2.61-2.61A2.61,2.61,0,0,0,298.09,237.38Z"/><path d="M308.64,237.38a2.61,2.61,0,1,0-2.61-2.61A2.61,2.61,0,0,0,308.64,237.38Z"/><path d="M319.19,237.38a2.61,2.61,0,1,0-2.61-2.61A2.61,2.61,0,0,0,319.19,237.38Z"/><path d="M329.75,237.38a2.61,2.61,0,1,0-2.62-2.61A2.61,2.61,0,0,0,329.75,237.38Z"/><path d="M340.3,237.38a2.61,2.61,0,1,0-2.62-2.61A2.61,2.61,0,0,0,340.3,237.38Z"/><path d="M350.85,237.38a2.61,2.61,0,1,0-2.61-2.61A2.61,2.61,0,0,0,350.85,237.38Z"/><path d="M361.4,237.38a2.61,2.61,0,1,0-2.61-2.61A2.61,2.61,0,0,0,361.4,237.38Z"/><path d="M372,237.38a2.61,2.61,0,1,0-2.61-2.61A2.61,2.61,0,0,0,372,237.38Z"/><path d="M382.51,237.38a2.61,2.61,0,1,0-2.61-2.61A2.61,2.61,0,0,0,382.51,237.38Z"/><path d="M393.06,237.38a2.61,2.61,0,1,0-2.61-2.61A2.61,2.61,0,0,0,393.06,237.38Z"/><path d="M403.61,237.38a2.61,2.61,0,1,0-2.61-2.61A2.61,2.61,0,0,0,403.61,237.38Z"/><path d="M414.16,237.38a2.61,2.61,0,1,0-2.61-2.61A2.61,2.61,0,0,0,414.16,237.38Z"/><path d="M424.72,237.38a2.61,2.61,0,1,0-2.61-2.61A2.61,2.61,0,0,0,424.72,237.38Z"/><path d="M435.27,237.38a2.61,2.61,0,1,0-2.61-2.61A2.61,2.61,0,0,0,435.27,237.38Z"/><path d="M445.82,237.38a2.61,2.61,0,1,0-2.61-2.61A2.61,2.61,0,0,0,445.82,237.38Z"/><path d="M456.38,237.38a2.61,2.61,0,1,0-2.62-2.61A2.61,2.61,0,0,0,456.38,237.38Z"/><path d="M466.93,237.38a2.61,2.61,0,1,0-2.61-2.61A2.61,2.61,0,0,0,466.93,237.38Z"/><path d="M477.48,237.38a2.61,2.61,0,1,0-2.61-2.61A2.61,2.61,0,0,0,477.48,237.38Z"/><path d="M266.43,247.94a2.62,2.62,0,1,0-2.61-2.62A2.61,2.61,0,0,0,266.43,247.94Z"/><path d="M277,247.94a2.62,2.62,0,1,0-2.61-2.62A2.61,2.61,0,0,0,277,247.94Z"/><path d="M287.53,247.94a2.62,2.62,0,1,0-2.61-2.62A2.62,2.62,0,0,0,287.53,247.94Z"/><path d="M298.09,247.94a2.62,2.62,0,1,0-2.61-2.62A2.61,2.61,0,0,0,298.09,247.94Z"/><path d="M308.64,247.94a2.62,2.62,0,1,0-2.61-2.62A2.61,2.61,0,0,0,308.64,247.94Z"/><path d="M319.19,247.94a2.62,2.62,0,1,0-2.61-2.62A2.61,2.61,0,0,0,319.19,247.94Z"/><path d="M329.75,247.94a2.62,2.62,0,1,0-2.62-2.62A2.61,2.61,0,0,0,329.75,247.94Z"/><path d="M340.3,247.94a2.62,2.62,0,1,0-2.62-2.62A2.61,2.61,0,0,0,340.3,247.94Z"/><path d="M350.85,247.94a2.62,2.62,0,1,0-2.61-2.62A2.61,2.61,0,0,0,350.85,247.94Z"/><path d="M361.4,247.94a2.62,2.62,0,1,0-2.61-2.62A2.61,2.61,0,0,0,361.4,247.94Z"/><path d="M372,247.94a2.62,2.62,0,1,0-2.61-2.62A2.62,2.62,0,0,0,372,247.94Z"/><path d="M382.51,247.94a2.62,2.62,0,1,0-2.61-2.62A2.61,2.61,0,0,0,382.51,247.94Z"/><path d="M393.06,247.94a2.62,2.62,0,1,0-2.61-2.62A2.61,2.61,0,0,0,393.06,247.94Z"/><path d="M403.61,247.94a2.62,2.62,0,1,0-2.61-2.62A2.62,2.62,0,0,0,403.61,247.94Z"/><path d="M414.16,247.94a2.62,2.62,0,1,0-2.61-2.62A2.62,2.62,0,0,0,414.16,247.94Z"/><path d="M424.72,247.94a2.62,2.62,0,1,0-2.61-2.62A2.61,2.61,0,0,0,424.72,247.94Z"/><path d="M435.27,247.94a2.62,2.62,0,1,0-2.61-2.62A2.61,2.61,0,0,0,435.27,247.94Z"/><path d="M445.82,247.94a2.62,2.62,0,1,0-2.61-2.62A2.61,2.61,0,0,0,445.82,247.94Z"/><path d="M456.38,247.94a2.62,2.62,0,1,0-2.62-2.62A2.61,2.61,0,0,0,456.38,247.94Z"/><path d="M466.93,247.94a2.62,2.62,0,1,0-2.61-2.62A2.61,2.61,0,0,0,466.93,247.94Z"/><path d="M287.53,258.49a2.62,2.62,0,1,0-2.61-2.61A2.61,2.61,0,0,0,287.53,258.49Z"/><path d="M298.09,258.49a2.62,2.62,0,1,0-2.61-2.61A2.61,2.61,0,0,0,298.09,258.49Z"/><path d="M308.64,258.49a2.62,2.62,0,1,0-2.61-2.61A2.61,2.61,0,0,0,308.64,258.49Z"/><path d="M319.19,258.49a2.62,2.62,0,1,0-2.61-2.61A2.61,2.61,0,0,0,319.19,258.49Z"/><path d="M329.75,258.49a2.62,2.62,0,1,0-2.62-2.61A2.61,2.61,0,0,0,329.75,258.49Z"/><path d="M340.3,258.49a2.62,2.62,0,1,0-2.62-2.61A2.61,2.61,0,0,0,340.3,258.49Z"/><path d="M350.85,258.49a2.62,2.62,0,1,0-2.61-2.61A2.61,2.61,0,0,0,350.85,258.49Z"/><path d="M361.4,258.49a2.62,2.62,0,1,0-2.61-2.61A2.61,2.61,0,0,0,361.4,258.49Z"/><path d="M372,258.49a2.62,2.62,0,1,0-2.61-2.61A2.61,2.61,0,0,0,372,258.49Z"/><path d="M382.51,258.49a2.62,2.62,0,1,0-2.61-2.61A2.61,2.61,0,0,0,382.51,258.49Z"/><path d="M393.06,258.49a2.62,2.62,0,1,0-2.61-2.61A2.61,2.61,0,0,0,393.06,258.49Z"/><path d="M403.61,258.49a2.62,2.62,0,1,0-2.61-2.61A2.61,2.61,0,0,0,403.61,258.49Z"/><circle cx="414.16" cy="255.88" r="2.61"/><circle cx="424.72" cy="255.88" r="2.61"/><path d="M435.27,258.49a2.62,2.62,0,1,0-2.61-2.61A2.61,2.61,0,0,0,435.27,258.49Z"/><path d="M298.09,269a2.61,2.61,0,1,0-2.61-2.61A2.61,2.61,0,0,0,298.09,269Z"/><path d="M308.64,269a2.61,2.61,0,1,0-2.61-2.61A2.61,2.61,0,0,0,308.64,269Z"/><path d="M319.19,269a2.61,2.61,0,1,0-2.61-2.61A2.61,2.61,0,0,0,319.19,269Z"/><path d="M329.75,269a2.61,2.61,0,1,0-2.62-2.61A2.61,2.61,0,0,0,329.75,269Z"/><path d="M340.3,269a2.61,2.61,0,1,0-2.62-2.61A2.61,2.61,0,0,0,340.3,269Z"/><path d="M350.85,269a2.61,2.61,0,1,0-2.61-2.61A2.61,2.61,0,0,0,350.85,269Z"/><path d="M361.4,269a2.61,2.61,0,1,0-2.61-2.61A2.61,2.61,0,0,0,361.4,269Z"/><path d="M372,269a2.61,2.61,0,1,0-2.61-2.61A2.61,2.61,0,0,0,372,269Z"/><path d="M382.51,269a2.61,2.61,0,1,0-2.61-2.61A2.61,2.61,0,0,0,382.51,269Z"/><path d="M393.06,269a2.61,2.61,0,1,0-2.61-2.61A2.61,2.61,0,0,0,393.06,269Z"/><path d="M403.61,269a2.61,2.61,0,1,0-2.61-2.61A2.61,2.61,0,0,0,403.61,269Z"/><circle cx="414.16" cy="266.43" r="2.61"/><circle cx="424.72" cy="266.43" r="2.61"/><path d="M435.27,269a2.61,2.61,0,1,0-2.61-2.61A2.61,2.61,0,0,0,435.27,269Z"/><circle cx="445.82" cy="266.43" r="2.61"/><path d="M456.38,269a2.61,2.61,0,1,0-2.62-2.61A2.61,2.61,0,0,0,456.38,269Z"/><path d="M466.93,269a2.61,2.61,0,1,0-2.61-2.61A2.61,2.61,0,0,0,466.93,269Z"/><path d="M319.19,279.59a2.61,2.61,0,1,0-2.61-2.61A2.61,2.61,0,0,0,319.19,279.59Z"/><path d="M329.75,279.59a2.61,2.61,0,1,0-2.62-2.61A2.61,2.61,0,0,0,329.75,279.59Z"/><path d="M340.3,279.59a2.61,2.61,0,1,0-2.62-2.61A2.61,2.61,0,0,0,340.3,279.59Z"/><path d="M350.85,279.59a2.61,2.61,0,1,0-2.61-2.61A2.61,2.61,0,0,0,350.85,279.59Z"/><path d="M361.4,279.59a2.61,2.61,0,1,0-2.61-2.61A2.61,2.61,0,0,0,361.4,279.59Z"/><path d="M372,279.59a2.61,2.61,0,1,0-2.61-2.61A2.61,2.61,0,0,0,372,279.59Z"/><path d="M382.51,279.59A2.61,2.61,0,1,0,379.9,277,2.61,2.61,0,0,0,382.51,279.59Z"/><path d="M393.06,279.59a2.61,2.61,0,1,0-2.61-2.61A2.61,2.61,0,0,0,393.06,279.59Z"/><path d="M403.61,279.59A2.61,2.61,0,1,0,401,277,2.61,2.61,0,0,0,403.61,279.59Z"/><path d="M414.16,279.59a2.61,2.61,0,1,0-2.61-2.61A2.61,2.61,0,0,0,414.16,279.59Z"/><path d="M424.72,279.59a2.61,2.61,0,1,0-2.61-2.61A2.61,2.61,0,0,0,424.72,279.59Z"/><path d="M435.27,279.59a2.61,2.61,0,1,0-2.61-2.61A2.61,2.61,0,0,0,435.27,279.59Z"/><path d="M445.82,279.59a2.61,2.61,0,1,0-2.61-2.61A2.61,2.61,0,0,0,445.82,279.59Z"/><path d="M456.38,279.59a2.61,2.61,0,1,0-2.62-2.61A2.61,2.61,0,0,0,456.38,279.59Z"/><path d="M466.93,279.59a2.61,2.61,0,1,0-2.61-2.61A2.61,2.61,0,0,0,466.93,279.59Z"/><path d="M340.3,290.15a2.62,2.62,0,1,0-2.62-2.62A2.61,2.61,0,0,0,340.3,290.15Z"/><path d="M350.85,290.15a2.62,2.62,0,1,0-2.61-2.62A2.61,2.61,0,0,0,350.85,290.15Z"/><path d="M361.4,290.15a2.62,2.62,0,1,0-2.61-2.62A2.61,2.61,0,0,0,361.4,290.15Z"/><path d="M372,290.15a2.62,2.62,0,1,0-2.61-2.62A2.62,2.62,0,0,0,372,290.15Z"/><path d="M382.51,290.15a2.62,2.62,0,1,0-2.61-2.62A2.61,2.61,0,0,0,382.51,290.15Z"/><path d="M393.06,290.15a2.62,2.62,0,1,0-2.61-2.62A2.61,2.61,0,0,0,393.06,290.15Z"/><path d="M403.61,290.15a2.62,2.62,0,1,0-2.61-2.62A2.62,2.62,0,0,0,403.61,290.15Z"/><circle cx="414.16" cy="287.53" r="2.61"/><circle cx="424.72" cy="287.53" r="2.61"/><path d="M435.27,290.15a2.62,2.62,0,1,0-2.61-2.62A2.61,2.61,0,0,0,435.27,290.15Z"/><circle cx="445.82" cy="287.53" r="2.61"/><path d="M456.38,290.15a2.62,2.62,0,1,0-2.62-2.62A2.61,2.61,0,0,0,456.38,290.15Z"/><path d="M466.93,290.15a2.62,2.62,0,1,0-2.61-2.62A2.61,2.61,0,0,0,466.93,290.15Z"/><path d="M361.4,300.7a2.61,2.61,0,1,0-2.61-2.61A2.61,2.61,0,0,0,361.4,300.7Z"/><path d="M372,300.7a2.61,2.61,0,1,0-2.61-2.61A2.61,2.61,0,0,0,372,300.7Z"/><path d="M382.51,300.7a2.61,2.61,0,1,0-2.61-2.61A2.61,2.61,0,0,0,382.51,300.7Z"/><path d="M393.06,300.7a2.61,2.61,0,1,0-2.61-2.61A2.61,2.61,0,0,0,393.06,300.7Z"/><path d="M403.61,300.7a2.61,2.61,0,1,0-2.61-2.61A2.61,2.61,0,0,0,403.61,300.7Z"/><circle cx="414.16" cy="298.09" r="2.61"/><circle cx="424.72" cy="298.09" r="2.61"/><path d="M435.27,300.7a2.61,2.61,0,1,0-2.61-2.61A2.61,2.61,0,0,0,435.27,300.7Z"/><circle cx="445.82" cy="298.09" r="2.61"/><path d="M456.38,300.7a2.61,2.61,0,1,0-2.62-2.61A2.61,2.61,0,0,0,456.38,300.7Z"/><path d="M466.93,300.7a2.61,2.61,0,1,0-2.61-2.61A2.61,2.61,0,0,0,466.93,300.7Z"/><path d="M477.48,300.7a2.61,2.61,0,1,0-2.61-2.61A2.61,2.61,0,0,0,477.48,300.7Z"/><path d="M393.06,311.25a2.61,2.61,0,1,0-2.61-2.61A2.61,2.61,0,0,0,393.06,311.25Z"/><path d="M403.61,311.25a2.61,2.61,0,1,0-2.61-2.61A2.61,2.61,0,0,0,403.61,311.25Z"/><path d="M414.16,311.25a2.61,2.61,0,1,0-2.61-2.61A2.61,2.61,0,0,0,414.16,311.25Z"/><path d="M424.72,311.25a2.61,2.61,0,1,0-2.61-2.61A2.61,2.61,0,0,0,424.72,311.25Z"/><path d="M435.27,311.25a2.61,2.61,0,1,0-2.61-2.61A2.61,2.61,0,0,0,435.27,311.25Z"/><path d="M445.82,311.25a2.61,2.61,0,1,0-2.61-2.61A2.61,2.61,0,0,0,445.82,311.25Z"/><path d="M456.38,311.25a2.61,2.61,0,1,0-2.62-2.61A2.61,2.61,0,0,0,456.38,311.25Z"/><path d="M466.93,311.25a2.61,2.61,0,1,0-2.61-2.61A2.61,2.61,0,0,0,466.93,311.25Z"/><path d="M477.48,311.25a2.61,2.61,0,1,0-2.61-2.61A2.61,2.61,0,0,0,477.48,311.25Z"/><path d="M414.16,321.8a2.61,2.61,0,1,0-2.61-2.61A2.61,2.61,0,0,0,414.16,321.8Z"/><path d="M424.72,321.8a2.61,2.61,0,1,0-2.61-2.61A2.61,2.61,0,0,0,424.72,321.8Z"/><path d="M435.27,321.8a2.61,2.61,0,1,0-2.61-2.61A2.61,2.61,0,0,0,435.27,321.8Z"/><path d="M445.82,321.8a2.61,2.61,0,1,0-2.61-2.61A2.61,2.61,0,0,0,445.82,321.8Z"/><path d="M456.38,321.8a2.61,2.61,0,1,0-2.62-2.61A2.61,2.61,0,0,0,456.38,321.8Z"/><path d="M466.93,321.8a2.61,2.61,0,1,0-2.61-2.61A2.61,2.61,0,0,0,466.93,321.8Z"/><path d="M414.16,332.36a2.62,2.62,0,1,0-2.61-2.62A2.62,2.62,0,0,0,414.16,332.36Z"/><path d="M424.72,332.36a2.62,2.62,0,1,0-2.61-2.62A2.61,2.61,0,0,0,424.72,332.36Z"/><path d="M435.27,332.36a2.62,2.62,0,1,0-2.61-2.62A2.61,2.61,0,0,0,435.27,332.36Z"/><path d="M445.82,332.36a2.62,2.62,0,1,0-2.61-2.62A2.61,2.61,0,0,0,445.82,332.36Z"/><path d="M456.38,332.36a2.62,2.62,0,1,0-2.62-2.62A2.61,2.61,0,0,0,456.38,332.36Z"/><path d="M466.93,332.36a2.62,2.62,0,1,0-2.61-2.62A2.61,2.61,0,0,0,466.93,332.36Z"/><path d="M414.16,342.91a2.61,2.61,0,1,0-2.61-2.61A2.61,2.61,0,0,0,414.16,342.91Z"/><path d="M424.72,342.91a2.61,2.61,0,1,0-2.61-2.61A2.61,2.61,0,0,0,424.72,342.91Z"/><path d="M435.27,342.91a2.61,2.61,0,1,0-2.61-2.61A2.61,2.61,0,0,0,435.27,342.91Z"/><path d="M445.82,342.91a2.61,2.61,0,1,0-2.61-2.61A2.61,2.61,0,0,0,445.82,342.91Z"/><path d="M456.38,342.91a2.61,2.61,0,1,0-2.62-2.61A2.61,2.61,0,0,0,456.38,342.91Z"/></g></g></svg>